<svg width="14" height="9" viewBox="0 0 14 9" fill="none" xmlns="http://www.w3.org/2000/svg">
<path d="M4.36052 1.67028C4.54729 1.48517 4.54864 1.1837 4.36352 0.996921C4.17841 0.810148 3.87693 0.808804 3.69016 0.993917L2.55076 2.1232C2.12162 2.54851 1.77087 2.89613 1.52213 3.20586C1.26347 3.52793 1.07623 3.85484 1.02621 4.24726C1.00428 4.41932 1.00428 4.59345 1.02621 4.76551C1.07623 5.15793 1.26347 5.48484 1.52213 5.80692C1.77087 6.11665 2.12162 6.46426 2.55077 6.88958L3.69016 8.01886C3.87693 8.20398 4.17841 8.20265 4.36352 8.01588C4.54863 7.8291 4.54729 7.52761 4.36052 7.34248L3.24128 6.2332C2.78705 5.78299 2.47545 5.47316 2.26462 5.21063C2.1961 5.12531 2.14264 5.0502 2.10114 4.98253H11.6436C11.9066 4.98253 12.1198 4.76935 12.1198 4.50639C12.1198 4.24342 11.9066 4.03024 11.6436 4.03024H2.10114C2.14264 3.96257 2.1961 3.88746 2.26462 3.80214C2.47545 3.53961 2.78705 3.22978 3.24128 2.77957L4.36052 1.67028Z" fill="url(#paint0_linear_894_4761)"/>
<defs>
<linearGradient id="paint0_linear_894_4761" x1="6.5926" y1="0.855957" x2="6.53693" y2="8.15683" gradientUnits="userSpaceOnUse">
<stop stop-color="white"/>
<stop offset="1" stop-color="#999999"/>
</linearGradient>
</defs>
</svg>
