<svg width="20" height="20" viewBox="0 0 20 20" fill="none" xmlns="http://www.w3.org/2000/svg">
<path d="M8.32278 0.467533C7.74194 0.470124 7.27319 0.943078 7.27579 1.52391C7.27838 2.10473 7.75133 2.57349 8.33215 2.5709L11.8127 2.55537C13.2253 2.54907 14.1959 2.54633 14.9352 2.62707C15.1755 2.6533 15.3763 2.68712 15.5468 2.72799L0.642994 17.6318C0.232283 18.0426 0.232283 18.7084 0.642995 19.1191C1.05371 19.5299 1.7196 19.5299 2.13031 19.1191L17.0341 4.21531C17.075 4.38582 17.1089 4.58663 17.1351 4.8269C17.2158 5.56622 17.2131 6.53679 17.2068 7.94937L17.1912 11.4299C17.1886 12.0108 17.6574 12.4837 18.2383 12.4863C18.819 12.489 19.292 12.0202 19.2946 11.4393L19.3104 7.89604C19.3163 6.5615 19.3213 5.47079 19.226 4.59855C19.1269 3.69154 18.9088 2.88851 18.3741 2.1975C18.2568 2.04601 18.1302 1.90227 17.995 1.7671C17.8599 1.63193 17.7161 1.50532 17.5646 1.38808C16.8736 0.853311 16.0706 0.635164 15.1636 0.536112C14.2914 0.440858 13.2006 0.445745 11.866 0.451723L8.32278 0.467533Z" fill="url(#paint0_linear_2131_129)"/>
<defs>
<linearGradient id="paint0_linear_2131_129" x1="9.82405" y1="0.448975" x2="9.82405" y2="19.4272" gradientUnits="userSpaceOnUse">
<stop stop-color="white"/>
<stop offset="1" stop-color="#999999"/>
</linearGradient>
</defs>
</svg>
