<svg width="56" height="48" viewBox="0 0 56 48" fill="none" xmlns="http://www.w3.org/2000/svg">
<g clip-path="url(#clip0_2985_4332)" filter="url(#filter0_dd_2985_4332)">
<path d="M23.5204 24.1144C23.6735 21.3936 25.0104 18.9966 27.0273 17.2974C29.0053 15.6285 31.6675 14.6084 34.5724 14.6084C37.4743 14.6084 40.1366 15.6285 42.116 17.2974C44.1315 18.9966 45.4684 21.3937 45.6229 24.1115C45.7759 26.907 44.6483 29.504 42.6704 31.4291C40.6535 33.3873 37.7847 34.616 34.5724 34.616C31.36 34.616 28.4855 33.3873 26.47 31.4291C24.4906 29.504 23.366 26.907 23.5204 24.1144Z" fill="url(#paint0_linear_2985_4332)"/>
<path d="M28.893 24.36C28.9715 22.964 29.6575 21.7341 30.6924 20.8622C31.7073 20.0058 33.0733 19.4824 34.5638 19.4824C36.0528 19.4824 37.4188 20.0058 38.4345 20.8622C39.4686 21.7341 40.1546 22.964 40.2339 24.3585C40.3124 25.7929 39.7338 27.1255 38.7189 28.1132C37.684 29.118 36.2121 29.7484 34.5638 29.7484C32.9155 29.7484 31.4406 29.118 30.4064 28.1132C29.3908 27.1255 28.8137 25.7929 28.893 24.36Z" fill="url(#paint1_linear_2985_4332)"/>
<path d="M19.8643 27.1878C19.8739 27.7341 20.0487 28.7957 20.311 29.6248C20.8621 31.3796 21.797 33.003 23.0978 34.4337C24.4328 35.9042 26.0766 37.0855 27.9753 37.9241C29.971 38.8048 32.1334 39.2537 34.3795 39.25C36.6219 39.247 38.7843 38.7893 40.78 37.9019C42.6787 37.0552 44.321 35.8688 45.6537 34.3975C46.9538 32.9609 47.8872 31.3345 48.4399 29.5797C48.7177 28.6931 48.8932 27.7932 48.9636 26.8903C49.0325 26.0007 49.0036 25.1097 48.8769 24.2193C48.6295 22.4845 48.0272 20.8566 47.0997 19.3728C46.2515 18.0092 45.1581 16.8155 43.858 15.8108L43.861 15.8085L30.7407 5.76916C30.7288 5.7603 30.7192 5.75071 30.7066 5.74259C29.8458 5.08408 28.3983 5.0863 27.4515 5.74629C26.4944 6.41366 26.3848 7.51732 27.2367 8.21348L27.233 8.21718L32.7053 12.6518L16.0262 12.6695H16.004C14.6253 12.671 13.3 13.5724 13.0378 14.7115C12.7682 15.872 13.7045 16.8347 15.138 16.8399L15.1357 16.845L23.5897 16.8288L8.50411 28.3683C8.48485 28.3823 8.4641 28.3971 8.44632 28.4111C7.02325 29.497 6.56322 31.3028 7.45959 32.4456C8.36929 33.6076 10.3035 33.6098 11.7414 32.4522L19.9746 25.7372C19.9746 25.7372 19.8546 26.6437 19.8643 27.1878ZM41.0207 30.2235C39.3243 31.9458 36.9493 32.9225 34.3795 32.9277C31.8059 32.9321 29.4309 31.9643 27.7345 30.2449C26.9056 29.407 26.2966 28.4428 25.921 27.4159C25.5529 26.4068 25.4099 25.3356 25.5047 24.2548C25.5943 23.1983 25.9099 22.1906 26.4137 21.2789C26.9085 20.3827 27.5901 19.5728 28.4316 18.8878C30.0806 17.5486 32.1801 16.8236 34.3758 16.8207C36.5737 16.8177 38.6717 17.536 40.3222 18.8708C41.1622 19.5529 41.843 20.3598 42.3379 21.2546C42.8439 22.1655 43.1572 23.1696 43.2506 24.2289C43.3439 25.3082 43.2009 26.378 42.8327 27.3879C42.4564 28.4177 41.8497 29.3819 41.0207 30.2235Z" fill="url(#paint2_linear_2985_4332)"/>
</g>
<defs>
<filter id="filter0_dd_2985_4332" x="0" y="0" width="56" height="48" filterUnits="userSpaceOnUse" color-interpolation-filters="sRGB">
<feFlood flood-opacity="0" result="BackgroundImageFix"/>
<feColorMatrix in="SourceAlpha" type="matrix" values="0 0 0 0 0 0 0 0 0 0 0 0 0 0 0 0 0 0 127 0" result="hardAlpha"/>
<feMorphology radius="1.75" operator="dilate" in="SourceAlpha" result="effect1_dropShadow_2985_4332"/>
<feOffset dy="1.75"/>
<feGaussianBlur stdDeviation="2.625"/>
<feColorMatrix type="matrix" values="0 0 0 0 0 0 0 0 0 0 0 0 0 0 0 0 0 0 0.15 0"/>
<feBlend mode="normal" in2="BackgroundImageFix" result="effect1_dropShadow_2985_4332"/>
<feColorMatrix in="SourceAlpha" type="matrix" values="0 0 0 0 0 0 0 0 0 0 0 0 0 0 0 0 0 0 127 0" result="hardAlpha"/>
<feOffset dy="0.875"/>
<feGaussianBlur stdDeviation="0.875"/>
<feColorMatrix type="matrix" values="0 0 0 0 0 0 0 0 0 0 0 0 0 0 0 0 0 0 0.3 0"/>
<feBlend mode="normal" in2="effect1_dropShadow_2985_4332" result="effect2_dropShadow_2985_4332"/>
<feBlend mode="normal" in="SourceGraphic" in2="effect2_dropShadow_2985_4332" result="shape"/>
</filter>
<linearGradient id="paint0_linear_2985_4332" x1="23.5063" y1="15.5218" x2="45.6367" y2="33.7026" gradientUnits="userSpaceOnUse">
<stop stop-color="#E0E0E0"/>
<stop offset="1" stop-color="#7A7A7A"/>
</linearGradient>
<linearGradient id="paint1_linear_2985_4332" x1="34.5633" y1="19.4824" x2="34.5633" y2="29.7484" gradientUnits="userSpaceOnUse">
<stop stop-color="#4E4E4E"/>
<stop offset="1" stop-color="#B4B4B4"/>
</linearGradient>
<linearGradient id="paint2_linear_2985_4332" x1="7" y1="21.308" x2="49" y2="23.192" gradientUnits="userSpaceOnUse">
<stop stop-color="white"/>
<stop offset="1" stop-color="#999999"/>
</linearGradient>
<clipPath id="clip0_2985_4332">
<rect width="42" height="34" fill="white" transform="translate(7 5.25)"/>
</clipPath>
</defs>
</svg>
