<svg width="56" height="56" viewBox="0 0 56 56" fill="none" xmlns="http://www.w3.org/2000/svg">
<path d="M0.87868 50.4422C-0.292893 51.6137 -0.292893 53.5132 0.87868 54.6848C2.05025 55.8564 3.94975 55.8564 5.12132 54.6848L3 52.5635L0.87868 50.4422ZM55.5631 3.00038C55.5631 1.34353 54.2199 0.000381994 52.5631 0.000379887L25.5631 0.000380898C23.9062 0.000380898 22.5631 1.34353 22.5631 3.00038C22.5631 4.65724 23.9062 6.00038 25.5631 6.00038L49.5631 6.00038L49.5631 30.0004C49.5631 31.6572 50.9062 33.0004 52.5631 33.0004C54.22 33.0004 55.5631 31.6572 55.5631 30.0004L55.5631 3.00038ZM3 52.5635L5.12132 54.6848L54.6844 5.1217L52.5631 3.00038L50.4418 0.879061L0.87868 50.4422L3 52.5635Z" fill="url(#paint0_linear_1045_7054)"/>
<defs>
<linearGradient id="paint0_linear_1045_7054" x1="3.35355" y1="52.917" x2="52.9166" y2="3.35394" gradientUnits="userSpaceOnUse">
<stop stop-color="#999999"/>
<stop offset="1" stop-color="white"/>
</linearGradient>
</defs>
</svg>
