<svg width="19" height="15" viewBox="0 0 19 15" fill="none" xmlns="http://www.w3.org/2000/svg">
<path d="M1.73627 6.5C1.18398 6.5 0.736267 6.94772 0.736267 7.5C0.736267 8.05228 1.18398 8.5 1.73627 8.5L1.73627 7.5L1.73627 6.5ZM18.0711 8.20711C18.4616 7.81658 18.4616 7.18342 18.0711 6.79289L11.7071 0.428931C11.3166 0.0384069 10.6834 0.0384069 10.2929 0.428931C9.90235 0.819456 9.90235 1.45262 10.2929 1.84315L15.9497 7.5L10.2929 13.1569C9.90235 13.5474 9.90235 14.1805 10.2929 14.5711C10.6834 14.9616 11.3166 14.9616 11.7071 14.5711L18.0711 8.20711ZM1.73627 7.5L1.73627 8.5L17.3639 8.5L17.3639 7.5L17.3639 6.5L1.73627 6.5L1.73627 7.5Z" fill="url(#paint0_linear_2272_1712)"/>
<defs>
<linearGradient id="paint0_linear_2272_1712" x1="1.73627" y1="8" x2="17.3639" y2="8" gradientUnits="userSpaceOnUse">
<stop stop-color="#999999"/>
<stop offset="1" stop-color="white"/>
</linearGradient>
</defs>
</svg>
