<svg version="1.1" id="Layer_1" xmlns="http://www.w3.org/2000/svg" xmlns:xlink="http://www.w3.org/1999/xlink" x="0px" y="0px"
	 width="100%" viewBox="0 0 4884 4884" enable-background="new 0 0 4884 4884" xml:space="preserve">
<path fill="#000000" opacity="1.000000" stroke="none" 
	d="
M3112.000000,4888.000000 
	C2074.666748,4888.000000 1039.333374,4888.000000 4.000000,4888.000000 
	C4.000000,3260.000000 4.000000,1632.000000 4.000000,4.000001 
	C1632.000000,4.000000 3260.000000,4.000000 4888.000000,4.000000 
	C4888.000000,1632.000000 4888.000000,3260.000000 4888.000000,4888.000000 
	C4296.666504,4888.000000 3705.333252,4888.000000 3112.000000,4888.000000 
M2726.664062,963.922058 
	C2695.284668,952.888306 2663.446289,943.574890 2630.522461,938.356934 
	C2604.254150,934.193787 2578.208252,928.773010 2551.551025,926.945068 
	C2526.458008,925.224426 2500.918457,926.463135 2476.650879,917.558228 
	C2473.683105,916.469299 2470.049805,917.135498 2466.723633,917.092407 
	C2448.065186,916.850769 2429.406494,916.571289 2410.746826,916.469299 
	C2406.095703,916.443848 2401.393311,916.701965 2396.797852,917.388855 
	C2382.417480,919.538330 2368.124023,922.312256 2353.712158,924.199219 
	C2314.762451,929.298950 2276.154297,935.790222 2238.507812,947.488647 
	C2202.870850,958.562622 2168.405029,972.541809 2134.405762,987.751404 
	C2108.728027,999.238281 2086.566162,1016.538208 2063.074219,1031.632812 
	C2048.442871,1041.034180 2035.528931,1052.382446 2023.484863,1064.929932 
	C2008.257202,1080.794312 1992.434326,1096.087280 1976.877808,1111.636353 
	C1963.212524,1125.295288 1950.717651,1139.876099 1940.271973,1156.222412 
	C1921.229492,1186.021973 1907.182861,1218.404541 1891.460815,1249.914917 
	C1886.726807,1259.402832 1883.189087,1269.484497 1879.022095,1279.259399 
	C1872.699097,1294.091919 1871.591064,1310.496460 1866.300781,1325.324951 
	C1859.815308,1343.502930 1859.390259,1361.732666 1858.458618,1380.274902 
	C1858.158569,1386.244751 1859.021606,1392.867432 1856.717041,1398.010498 
	C1852.706177,1406.961548 1852.766602,1416.304321 1852.254517,1425.389282 
	C1851.169678,1444.631836 1849.070923,1464.311279 1853.938843,1483.090088 
	C1857.517700,1496.895874 1858.924927,1510.492188 1858.774780,1524.491455 
	C1858.602417,1540.557861 1860.845459,1556.004395 1866.558350,1571.288330 
	C1874.707397,1593.089966 1881.262939,1615.484619 1888.606689,1637.590332 
	C1901.158447,1675.372681 1921.431763,1708.573975 1948.079590,1738.050781 
	C1954.302002,1744.934082 1959.842773,1752.436157 1965.650879,1759.690674 
	C1971.008423,1766.382568 1975.841309,1773.563110 1981.720093,1779.755005 
	C1994.860474,1793.595093 2008.471191,1806.990356 2021.965698,1820.491577 
	C2028.495361,1827.024536 2034.629150,1834.129395 2041.920898,1839.692383 
	C2066.200928,1858.215454 2090.636963,1876.563599 2115.562500,1894.202637 
	C2138.303223,1910.295776 2161.875732,1925.208008 2184.870605,1940.948730 
	C2216.680176,1962.723267 2248.930908,1983.782471 2282.462402,2002.827759 
	C2293.969482,2009.363647 2305.502930,2015.857544 2317.126221,2022.183716 
	C2338.144043,2033.623291 2360.526123,2042.664307 2379.388672,2057.890625 
	C2381.385010,2059.501953 2384.030029,2060.302246 2386.356689,2061.512695 
	C2410.508545,2074.077881 2434.774414,2086.430176 2458.759521,2099.305664 
	C2472.187988,2106.514160 2484.891357,2115.083252 2498.375977,2122.174072 
	C2524.820312,2136.079834 2551.528076,2149.488525 2578.228760,2162.899902 
	C2603.732910,2175.710449 2626.814697,2192.642578 2652.347656,2205.509277 
	C2676.058105,2217.457764 2698.754639,2231.419434 2721.886230,2244.514648 
	C2745.642822,2257.963623 2768.687012,2272.310547 2789.573242,2290.191895 
	C2805.697754,2303.996826 2822.445312,2317.489502 2840.531982,2328.456055 
	C2855.064209,2337.267334 2867.049561,2348.385742 2879.045898,2359.811523 
	C2889.172852,2369.456543 2898.440186,2380.011230 2908.654785,2389.556641 
	C2925.778809,2405.558594 2941.288086,2422.870850 2953.240479,2443.065674 
	C2965.343750,2463.516357 2982.710449,2481.117188 2987.486572,2505.601318 
	C2987.730713,2506.851807 2988.696533,2507.959717 2989.318359,2509.138428 
	C2997.719727,2525.067383 3002.936523,2542.231689 3009.144043,2559.042969 
	C3015.375000,2575.918213 3016.158936,2594.085693 3022.790283,2610.840088 
	C3024.664551,2615.575439 3024.075195,2621.372559 3024.207764,2626.692871 
	C3024.506836,2638.687012 3024.357910,2650.694336 3024.767334,2662.683350 
	C3025.038330,2670.612549 3026.575195,2678.529053 3026.452148,2686.434082 
	C3026.255859,2699.025635 3024.202637,2711.634521 3024.619873,2724.179932 
	C3025.543213,2751.936279 3017.689941,2778.002686 3010.569092,2804.209473 
	C3006.745605,2818.280762 3001.311523,2831.908936 2997.281738,2845.931641 
	C2993.922363,2857.620361 2988.595215,2868.127197 2981.660156,2878.014648 
	C2978.653320,2882.301514 2976.326660,2887.069336 2973.739990,2891.646240 
	C2959.327881,2917.148682 2944.902832,2942.687744 2924.334961,2963.925293 
	C2912.287598,2976.365234 2899.760498,2988.354492 2887.150635,3000.229248 
	C2881.362549,3005.680908 2874.939697,3010.477295 2868.654297,3015.378174 
	C2860.799316,3021.502441 2852.856445,3027.519775 2844.832275,3033.420654 
	C2828.776123,3045.228760 2813.067139,3057.609375 2794.675049,3065.777832 
	C2785.003662,3070.072754 2774.942383,3073.567139 2765.530518,3078.354004 
	C2743.514404,3089.551514 2720.755615,3098.794434 2697.028564,3105.551758 
	C2687.509277,3108.263184 2677.658691,3109.787109 2668.054688,3112.228760 
	C2648.172607,3117.284424 2628.399414,3122.773682 2608.482422,3127.682617 
	C2602.714111,3129.104736 2596.607666,3129.148193 2590.658691,3129.846191 
	C2588.039062,3130.153320 2585.156738,3129.916016 2582.853271,3130.949951 
	C2567.149414,3137.998779 2550.402344,3138.192383 2533.778564,3138.226318 
	C2491.784180,3138.312012 2449.785400,3138.109619 2407.795898,3137.503174 
	C2395.868652,3137.330811 2383.938721,3135.605225 2372.064453,3134.148438 
	C2364.862549,3133.264648 2357.802734,3131.273193 2350.614258,3130.221436 
	C2317.094238,3125.318848 2283.752197,3119.589355 2251.267578,3109.701660 
	C2239.205811,3106.030273 2226.978271,3102.788086 2215.171143,3098.418457 
	C2192.725830,3090.111816 2170.290283,3081.693848 2148.284180,3072.306396 
	C2113.289062,3057.378174 2081.379883,3036.926758 2050.140625,3015.406006 
	C2038.102905,3007.113037 2025.524048,2999.731445 2015.044678,2989.157471 
	C1986.514893,2960.369873 1957.526245,2932.035889 1928.643555,2903.599609 
	C1911.876099,2887.091309 1900.817505,2866.556641 1888.856323,2846.751709 
	C1882.034790,2835.456543 1877.172607,2823.107666 1868.705566,2812.600098 
	C1863.362671,2805.969482 1859.529663,2797.892822 1856.109985,2789.992920 
	C1850.043945,2775.979980 1844.800049,2761.610840 1839.227173,2747.385010 
	C1835.591797,2738.104492 1831.464844,2728.977783 1828.461304,2719.496094 
	C1820.246338,2693.562988 1811.857422,2667.747559 1805.530640,2641.162598 
	C1796.869873,2604.770508 1789.332886,2568.555176 1790.939941,2530.907959 
	C1791.422852,2519.597168 1791.030762,2508.245850 1790.898682,2496.914551 
	C1790.852661,2492.962158 1790.700806,2488.960938 1790.048706,2485.074219 
	C1787.613403,2470.558350 1787.722656,2456.175537 1790.117065,2441.594238 
	C1791.706421,2431.915527 1791.295654,2421.977051 1788.249878,2410.964844 
	C1779.164185,2411.895996 1770.683472,2409.416260 1762.757324,2412.998291 
	C1761.891113,2414.732910 1760.926025,2415.850830 1760.789062,2417.062500 
	C1759.008667,2432.824463 1762.260620,2449.107910 1755.714111,2464.416992 
	C1755.045776,2465.979980 1755.515259,2468.556152 1756.382568,2470.161865 
	C1761.146240,2478.981201 1758.715088,2488.443604 1759.111450,2497.618408 
	C1760.317993,2525.559082 1760.681519,2553.553223 1762.648560,2581.436523 
	C1763.624146,2595.265137 1768.252930,2608.806396 1769.707520,2622.637451 
	C1772.230835,2646.633301 1779.174927,2669.564941 1785.773682,2692.490479 
	C1792.936646,2717.375732 1801.830688,2741.784180 1810.533447,2766.199707 
	C1820.593262,2794.422119 1833.086548,2821.481689 1850.735840,2845.950439 
	C1854.599854,2851.307617 1857.932007,2857.180664 1860.656372,2863.202148 
	C1867.876465,2879.159424 1877.504395,2893.214111 1890.330200,2905.256104 
	C1896.111816,2910.684082 1902.153564,2916.611572 1905.624878,2923.541260 
	C1910.824219,2933.919434 1917.716553,2942.573242 1925.804932,2950.545166 
	C1935.732422,2960.329590 1945.237793,2970.617188 1955.815796,2979.644531 
	C1965.765747,2988.135742 1969.338135,2997.810547 1969.292114,3010.920166 
	C1968.777466,3157.578613 1968.813965,3304.238770 1968.659912,3450.898682 
	C1968.624878,3484.229248 1968.501953,3517.560547 1968.269287,3550.890381 
	C1968.171631,3564.885254 1967.505249,3578.828613 1962.311523,3592.144043 
	C1961.135010,3595.160156 1960.686279,3598.500244 1960.192017,3601.735596 
	C1957.946899,3616.434326 1952.740601,3630.010498 1944.670776,3642.450195 
	C1927.653320,3668.682861 1908.596802,3693.083984 1885.340698,3714.352783 
	C1852.082642,3744.768555 1812.802612,3760.446777 1768.678711,3765.084229 
	C1759.360718,3766.063721 1750.402466,3767.318848 1742.043701,3770.819092 
	C1738.738647,3792.422363 1738.944702,3821.474609 1742.398926,3833.989502 
	C1758.151245,3835.891357 2399.470459,3836.295166 2416.020264,3834.378906 
	C2416.652832,3832.671387 2417.892822,3830.845215 2417.919678,3829.001709 
	C2418.084229,3817.679932 2418.463867,3806.327881 2417.855469,3795.035400 
	C2416.552734,3770.869873 2410.398438,3765.084961 2385.603271,3765.446045 
	C2371.389404,3765.652588 2357.852295,3763.993164 2344.704102,3758.269775 
	C2314.081055,3744.939697 2285.584229,3727.914062 2258.364258,3708.752930 
	C2252.501709,3704.626221 2247.082764,3699.009521 2243.309082,3692.930664 
	C2229.685547,3670.985352 2214.239502,3650.165771 2204.479980,3625.829102 
	C2195.212158,3602.718750 2188.772949,3579.487305 2188.875977,3554.290283 
	C2189.288086,3453.636230 2189.147461,3352.980225 2189.234375,3252.324951 
	C2189.263672,3218.326904 2189.308350,3184.328857 2189.469238,3150.331299 
	C2189.503174,3143.254883 2190.079834,3136.181396 2190.438721,3128.406250 
	C2195.741699,3128.668213 2199.792236,3128.228516 2203.497070,3129.161133 
	C2220.239990,3133.375732 2236.807129,3138.302734 2253.585205,3142.362549 
	C2276.198975,3147.834717 2298.889893,3153.025635 2321.666504,3157.767822 
	C2331.412598,3159.796875 2341.474365,3160.269775 2351.361572,3161.671387 
	C2360.530029,3162.970703 2369.613525,3165.422852 2378.809570,3165.892090 
	C2447.424072,3169.390381 2516.067383,3168.537354 2584.705322,3166.471924 
	C2587.967041,3166.373535 2591.632812,3166.196777 2594.371582,3164.702148 
	C2603.523926,3159.707520 2613.607666,3160.045410 2623.404541,3158.395508 
	C2650.281494,3153.868652 2677.381836,3150.050781 2703.781494,3143.488525 
	C2727.585205,3137.571289 2750.490723,3128.114258 2773.961426,3120.758057 
	C2788.589111,3116.173340 2802.826904,3110.625977 2816.498291,3103.893799 
	C2845.749023,3089.490234 2874.872559,3074.794189 2903.627197,3059.429688 
	C2924.105225,3048.487061 2944.057617,3036.569092 2960.519287,3019.637207 
	C2966.520752,3013.464844 2972.995850,3007.277344 2980.365234,3003.018311 
	C2992.628418,2995.931152 3002.882568,2986.815918 3012.755615,2976.907471 
	C3025.845947,2963.769775 3039.818604,2951.515869 3048.726807,2934.736084 
	C3051.167236,2930.139404 3055.484131,2926.557373 3058.826172,2922.418213 
	C3067.573975,2911.584961 3076.191406,2900.646484 3084.982910,2889.849609 
	C3101.074463,2870.087646 3111.642822,2847.077148 3123.102051,2824.643066 
	C3135.525391,2800.321289 3145.285889,2774.915283 3154.020996,2748.972900 
	C3160.444580,2729.895508 3163.229736,2710.153564 3168.530518,2690.965088 
	C3173.012695,2674.739746 3175.191895,2658.351807 3175.384033,2641.729248 
	C3175.776611,2607.736084 3175.749756,2573.732910 3175.400146,2539.738525 
	C3175.229004,2523.118164 3173.630371,2506.653564 3168.402588,2490.566650 
	C3165.552979,2481.797607 3164.928711,2472.302002 3163.351074,2463.125244 
	C3162.793213,2459.878906 3162.981201,2456.374268 3161.814209,2453.383057 
	C3152.164551,2428.644775 3144.611572,2403.197266 3134.543701,2378.538330 
	C3113.664062,2327.398438 3081.014648,2283.942871 3048.725586,2240.093262 
	C3047.559570,2238.509521 3045.853516,2237.331055 3044.447754,2235.915527 
	C3017.729736,2209.019043 2991.103760,2182.029785 2964.232422,2155.287354 
	C2959.081787,2150.161377 2953.435059,2145.213135 2947.215088,2141.541504 
	C2927.138916,2129.689941 2911.531982,2111.682373 2890.659668,2100.975586 
	C2888.375244,2099.803955 2886.815918,2097.296631 2884.724609,2095.658936 
	C2866.954590,2081.742676 2849.176514,2067.835938 2831.286865,2054.073975 
	C2829.245361,2052.503418 2826.370361,2052.067139 2824.110596,2050.720703 
	C2808.681641,2041.527710 2792.989990,2032.722046 2778.017334,2022.831543 
	C2763.036377,2012.935669 2748.295898,2002.814819 2732.186279,1994.697876 
	C2713.208252,1985.135742 2694.627441,1974.776733 2675.986816,1964.558105 
	C2668.455322,1960.429565 2661.359131,1955.507446 2653.827148,1951.380127 
	C2630.481689,1938.587646 2606.536865,1926.808105 2583.760254,1913.083618 
	C2565.537109,1902.102905 2547.121826,1891.709839 2527.942871,1882.539795 
	C2514.742188,1876.228149 2501.296143,1870.130005 2488.984863,1862.320435 
	C2463.701172,1846.282104 2437.429688,1832.168213 2410.861572,1818.452881 
	C2396.724609,1811.154663 2383.692139,1801.728027 2369.606201,1794.317139 
	C2312.449463,1764.245972 2258.017822,1729.705811 2204.340576,1693.954468 
	C2187.216309,1682.549072 2169.619385,1671.571167 2155.908936,1655.633789 
	C2152.074707,1651.176636 2147.120361,1647.124756 2141.863770,1644.559814 
	C2128.974609,1638.270874 2118.913330,1628.609253 2108.960449,1618.810181 
	C2096.617432,1606.658203 2084.176025,1594.533081 2072.749268,1581.541382 
	C2058.351318,1565.171631 2048.185791,1545.451416 2032.864990,1529.711182 
	C2031.512085,1528.321045 2030.700317,1526.356567 2029.806763,1524.573975 
	C2020.869995,1506.744507 2012.409546,1488.829834 2006.511597,1469.579224 
	C2002.220947,1455.574585 1999.297241,1441.348877 1995.512207,1427.301392 
	C1991.827148,1413.625122 1989.812256,1400.023804 1989.889771,1385.955688 
	C1990.021851,1361.957520 1989.981934,1337.958374 1990.025391,1313.959717 
	C1990.050781,1299.936890 1990.617310,1286.012573 1995.713745,1272.651611 
	C1996.878662,1269.597656 1996.772827,1266.083252 1997.678223,1262.902100 
	C2002.589111,1245.649048 2007.016113,1228.225342 2012.755127,1211.247437 
	C2026.413330,1170.842773 2051.994873,1137.410156 2077.980225,1104.576050 
	C2091.158936,1087.923828 2106.814209,1073.162598 2121.950439,1058.152466 
	C2132.336426,1047.853149 2143.690430,1038.698120 2157.158447,1032.180054 
	C2166.636475,1027.593140 2175.114502,1020.979736 2184.220703,1015.576965 
	C2205.359375,1003.035034 2226.393311,990.201904 2249.900879,982.400208 
	C2261.869141,978.428223 2274.188721,975.503113 2286.113281,971.415405 
	C2310.743896,962.971863 2335.695801,956.188538 2361.757324,954.005859 
	C2367.057129,953.562012 2372.292236,952.375488 2377.566895,951.596680 
	C2388.720703,949.949707 2399.834717,947.488281 2411.047363,946.883179 
	C2446.352539,944.977539 2481.635498,944.639771 2516.308594,953.491089 
	C2518.863770,954.143372 2521.579102,954.324646 2524.230713,954.418884 
	C2545.639893,955.179749 2566.653076,958.658569 2587.109863,964.796448 
	C2615.712891,973.378601 2645.220703,979.390015 2671.624756,994.421692 
	C2684.269531,1001.620361 2696.856934,1009.427673 2710.404053,1014.431519 
	C2741.760010,1026.013550 2766.257080,1047.904541 2791.218018,1068.297974 
	C2817.372803,1089.666382 2841.631592,1113.588135 2859.596191,1143.189575 
	C2879.913330,1176.668335 2902.137207,1208.985718 2922.747314,1242.293701 
	C2928.620850,1251.785767 2931.840332,1262.935669 2936.118408,1273.390381 
	C2937.625732,1277.073853 2938.239014,1281.156250 2939.972168,1284.709229 
	C2962.310303,1330.500366 2973.879395,1379.739136 2985.738525,1428.818359 
	C2990.395020,1448.089722 2996.833252,1467.111938 2997.283691,1487.265625 
	C2997.327148,1489.212524 2997.670166,1491.382202 2998.599365,1493.042358 
	C3004.749512,1504.030151 3004.278320,1516.149170 3004.861816,1528.087402 
	C3005.540283,1541.973389 3004.837891,1555.806274 3011.566406,1569.042480 
	C3014.695312,1575.197144 3014.302002,1583.347412 3014.704346,1590.637329 
	C3015.401611,1603.277710 3016.032227,1615.971191 3015.603027,1628.605469 
	C3015.345947,1636.169678 3016.459229,1643.035156 3019.461670,1649.838013 
	C3023.579590,1659.167480 3024.232910,1669.086792 3024.275146,1679.143311 
	C3024.395996,1707.807129 3024.737305,1736.469971 3024.862061,1765.133789 
	C3024.902344,1774.374756 3025.085449,1783.529053 3028.870117,1792.566162 
	C3037.684326,1791.782104 3046.414062,1795.217773 3054.376465,1790.336792 
	C3056.921387,1768.101196 3058.197021,1003.071045 3055.823486,918.175293 
	C3055.733643,914.967957 3055.085449,911.776184 3054.624023,907.972778 
	C3036.816162,905.643311 3019.584717,905.945496 3002.427246,907.758484 
	C2993.707520,908.679810 2987.758789,913.855225 2986.447021,923.087402 
	C2985.794678,927.680786 2984.572754,932.409729 2985.086914,936.908447 
	C2986.265381,947.222717 2982.376465,955.015625 2975.023682,961.664917 
	C2973.552246,962.995544 2971.966797,964.464905 2971.143066,966.205872 
	C2963.160889,983.074646 2949.119141,993.306091 2934.157471,1003.702820 
	C2922.529297,1011.783081 2911.460449,1016.869507 2897.460205,1015.871704 
	C2889.290039,1015.289429 2881.635498,1016.924561 2874.835205,1022.037048 
	C2872.318848,1023.928833 2869.054932,1024.826050 2864.624268,1026.873657 
	C2857.951172,1018.554749 2848.432617,1016.334961 2838.406250,1014.846130 
	C2833.930664,1014.181519 2829.660889,1011.712341 2825.455322,1009.728333 
	C2814.013916,1004.331421 2802.727539,998.602661 2791.250000,993.285400 
	C2770.734375,983.780945 2750.123291,974.481812 2726.664062,963.922058 
M1968.685669,2282.000488 
	C1968.656006,2405.979980 1968.631836,2529.959473 1968.593750,2653.938965 
	C1968.579346,2701.263916 1968.973145,2748.595703 1968.218140,2795.909180 
	C1968.006592,2809.159180 1972.100220,2819.428467 1981.517700,2827.725830 
	C1989.189331,2834.484863 1995.236938,2842.063477 1999.055054,2851.584717 
	C2000.241699,2854.543945 2002.418823,2857.309570 2004.713745,2859.588867 
	C2027.243530,2881.965088 2046.305054,2908.171631 2075.146240,2923.614746 
	C2076.888916,2924.547607 2078.638916,2925.692627 2079.975342,2927.122070 
	C2092.414551,2940.426514 2108.258057,2949.149170 2122.977295,2959.405762 
	C2140.559570,2971.656982 2159.804443,2980.575439 2179.629883,2988.368652 
	C2181.859375,2989.244629 2184.499756,2989.075684 2187.869141,2989.510010 
	C2188.176758,2980.644043 2188.620605,2972.708984 2188.697021,2964.770020 
	C2188.993164,2934.122070 2189.325928,2903.473145 2189.363037,2872.824219 
	C2189.446045,2804.172607 2189.347656,2735.521240 2189.345215,2666.869629 
	C2189.342041,2568.227295 2189.359131,2469.584717 2189.367188,2370.942383 
	C2189.375244,2274.298096 2189.446777,2177.654053 2189.312500,2081.009766 
	C2189.295166,2068.456055 2188.215088,2055.903809 2187.652344,2043.889648 
	C2183.276611,2040.700806 2180.166748,2038.202881 2176.823730,2036.070557 
	C2174.063477,2034.309814 2170.970215,2033.080688 2168.126953,2031.438354 
	C2164.116455,2029.122070 2160.080078,2026.817871 2156.267822,2024.197998 
	C2145.905518,2017.075928 2135.747314,2009.654907 2125.334961,2002.608154 
	C2114.906738,1995.550537 2104.218994,1988.877075 2093.735107,1981.899658 
	C2079.931396,1972.712524 2066.571289,1962.795288 2052.343262,1954.329590 
	C2041.914185,1948.124146 2031.772949,1941.925659 2024.632690,1931.951538 
	C2019.424316,1924.675781 2012.614868,1922.646851 2003.906128,1922.661133 
	C1919.926392,1922.798218 1835.946045,1922.598267 1751.965942,1922.603760 
	C1748.230591,1922.604004 1744.495117,1923.655396 1739.959839,1924.337280 
	C1740.321655,1946.423828 1739.029785,1967.551514 1740.249268,1989.611206 
	C1745.854370,1990.656250 1750.349365,1991.318726 1754.758789,1992.346924 
	C1774.164062,1996.871094 1793.976807,2000.204102 1812.805542,2006.478271 
	C1829.696411,2012.106567 1845.714355,2020.572998 1861.727539,2028.567993 
	C1889.920166,2042.643677 1911.104736,2064.870117 1927.601440,2090.962891 
	C1938.556641,2108.290771 1946.972168,2127.380859 1955.114746,2146.289307 
	C1964.353516,2167.743164 1970.328857,2190.002686 1968.995361,2214.025391 
	C1967.815063,2235.290527 1968.718628,2256.670898 1968.685669,2282.000488 
z"/>
<path fill="#FAFAFA" opacity="1.000000" stroke="none" 
	d="
M2728.108154,964.509399 
	C2750.123291,974.481812 2770.734375,983.780945 2791.250000,993.285400 
	C2802.727539,998.602661 2814.013916,1004.331421 2825.455322,1009.728333 
	C2829.660889,1011.712341 2833.930664,1014.181519 2838.406250,1014.846130 
	C2848.432617,1016.334961 2857.951172,1018.554749 2864.624268,1026.873657 
	C2869.054932,1024.826050 2872.318848,1023.928833 2874.835205,1022.037048 
	C2881.635498,1016.924561 2889.290039,1015.289429 2897.460205,1015.871704 
	C2911.460449,1016.869507 2922.529297,1011.783081 2934.157471,1003.702820 
	C2949.119141,993.306091 2963.160889,983.074646 2971.143066,966.205872 
	C2971.966797,964.464905 2973.552246,962.995544 2975.023682,961.664917 
	C2982.376465,955.015625 2986.265381,947.222717 2985.086914,936.908447 
	C2984.572754,932.409729 2985.794678,927.680786 2986.447021,923.087402 
	C2987.758789,913.855225 2993.707520,908.679810 3002.427246,907.758484 
	C3019.584717,905.945496 3036.816162,905.643311 3054.624023,907.972778 
	C3055.085449,911.776184 3055.733643,914.967957 3055.823486,918.175293 
	C3058.197021,1003.071045 3056.921387,1768.101196 3054.376465,1790.336792 
	C3046.414062,1795.217773 3037.684326,1791.782104 3028.870117,1792.566162 
	C3025.085449,1783.529053 3024.902344,1774.374756 3024.862061,1765.133789 
	C3024.737305,1736.469971 3024.395996,1707.807129 3024.275146,1679.143311 
	C3024.232910,1669.086792 3023.579590,1659.167480 3019.461670,1649.838013 
	C3016.459229,1643.035156 3015.345947,1636.169678 3015.603027,1628.605469 
	C3016.032227,1615.971191 3015.401611,1603.277710 3014.704346,1590.637329 
	C3014.302002,1583.347412 3014.695312,1575.197144 3011.566406,1569.042480 
	C3004.837891,1555.806274 3005.540283,1541.973389 3004.861816,1528.087402 
	C3004.278320,1516.149170 3004.749512,1504.030151 2998.599365,1493.042358 
	C2997.670166,1491.382202 2997.327148,1489.212524 2997.283691,1487.265625 
	C2996.833252,1467.111938 2990.395020,1448.089722 2985.738525,1428.818359 
	C2973.879395,1379.739136 2962.310303,1330.500366 2939.972168,1284.709229 
	C2938.239014,1281.156250 2937.625732,1277.073853 2936.118408,1273.390381 
	C2931.840332,1262.935669 2928.620850,1251.785767 2922.747314,1242.293701 
	C2902.137207,1208.985718 2879.913330,1176.668335 2859.596191,1143.189575 
	C2841.631592,1113.588135 2817.372803,1089.666382 2791.218018,1068.297974 
	C2766.257080,1047.904541 2741.760010,1026.013550 2710.404053,1014.431519 
	C2696.856934,1009.427673 2684.269531,1001.620361 2671.624756,994.421692 
	C2645.220703,979.390015 2615.712891,973.378601 2587.109863,964.796448 
	C2566.653076,958.658569 2545.639893,955.179749 2524.230713,954.418884 
	C2521.579102,954.324646 2518.863770,954.143372 2516.308594,953.491089 
	C2481.635498,944.639771 2446.352539,944.977539 2411.047363,946.883179 
	C2399.834717,947.488281 2388.720703,949.949707 2377.566895,951.596680 
	C2372.292236,952.375488 2367.057129,953.562012 2361.757324,954.005859 
	C2335.695801,956.188538 2310.743896,962.971863 2286.113281,971.415405 
	C2274.188721,975.503113 2261.869141,978.428223 2249.900879,982.400208 
	C2226.393311,990.201904 2205.359375,1003.035034 2184.220703,1015.576965 
	C2175.114502,1020.979736 2166.636475,1027.593140 2157.158447,1032.180054 
	C2143.690430,1038.698120 2132.336426,1047.853149 2121.950439,1058.152466 
	C2106.814209,1073.162598 2091.158936,1087.923828 2077.980225,1104.576050 
	C2051.994873,1137.410156 2026.413330,1170.842773 2012.755127,1211.247437 
	C2007.016113,1228.225342 2002.589111,1245.649048 1997.678223,1262.902100 
	C1996.772827,1266.083252 1996.878662,1269.597656 1995.713745,1272.651611 
	C1990.617310,1286.012573 1990.050781,1299.936890 1990.025391,1313.959717 
	C1989.981934,1337.958374 1990.021851,1361.957520 1989.889771,1385.955688 
	C1989.812256,1400.023804 1991.827148,1413.625122 1995.512207,1427.301392 
	C1999.297241,1441.348877 2002.220947,1455.574585 2006.511597,1469.579224 
	C2012.409546,1488.829834 2020.869995,1506.744507 2029.806763,1524.573975 
	C2030.700317,1526.356567 2031.512085,1528.321045 2032.864990,1529.711182 
	C2048.185791,1545.451416 2058.351318,1565.171631 2072.749268,1581.541382 
	C2084.176025,1594.533081 2096.617432,1606.658203 2108.960449,1618.810181 
	C2118.913330,1628.609253 2128.974609,1638.270874 2141.863770,1644.559814 
	C2147.120361,1647.124756 2152.074707,1651.176636 2155.908936,1655.633789 
	C2169.619385,1671.571167 2187.216309,1682.549072 2204.340576,1693.954468 
	C2258.017822,1729.705811 2312.449463,1764.245972 2369.606201,1794.317139 
	C2383.692139,1801.728027 2396.724609,1811.154663 2410.861572,1818.452881 
	C2437.429688,1832.168213 2463.701172,1846.282104 2488.984863,1862.320435 
	C2501.296143,1870.130005 2514.742188,1876.228149 2527.942871,1882.539795 
	C2547.121826,1891.709839 2565.537109,1902.102905 2583.760254,1913.083618 
	C2606.536865,1926.808105 2630.481689,1938.587646 2653.827148,1951.380127 
	C2661.359131,1955.507446 2668.455322,1960.429565 2675.986816,1964.558105 
	C2694.627441,1974.776733 2713.208252,1985.135742 2732.186279,1994.697876 
	C2748.295898,2002.814819 2763.036377,2012.935669 2778.017334,2022.831543 
	C2792.989990,2032.722046 2808.681641,2041.527710 2824.110596,2050.720703 
	C2826.370361,2052.067139 2829.245361,2052.503418 2831.286865,2054.073975 
	C2849.176514,2067.835938 2866.954590,2081.742676 2884.724609,2095.658936 
	C2886.815918,2097.296631 2888.375244,2099.803955 2890.659668,2100.975586 
	C2911.531982,2111.682373 2927.138916,2129.689941 2947.215088,2141.541504 
	C2953.435059,2145.213135 2959.081787,2150.161377 2964.232422,2155.287354 
	C2991.103760,2182.029785 3017.729736,2209.019043 3044.447754,2235.915527 
	C3045.853516,2237.331055 3047.559570,2238.509521 3048.725586,2240.093262 
	C3081.014648,2283.942871 3113.664062,2327.398438 3134.543701,2378.538330 
	C3144.611572,2403.197266 3152.164551,2428.644775 3161.814209,2453.383057 
	C3162.981201,2456.374268 3162.793213,2459.878906 3163.351074,2463.125244 
	C3164.928711,2472.302002 3165.552979,2481.797607 3168.402588,2490.566650 
	C3173.630371,2506.653564 3175.229004,2523.118164 3175.400146,2539.738525 
	C3175.749756,2573.732910 3175.776611,2607.736084 3175.384033,2641.729248 
	C3175.191895,2658.351807 3173.012695,2674.739746 3168.530518,2690.965088 
	C3163.229736,2710.153564 3160.444580,2729.895508 3154.020996,2748.972900 
	C3145.285889,2774.915283 3135.525391,2800.321289 3123.102051,2824.643066 
	C3111.642822,2847.077148 3101.074463,2870.087646 3084.982910,2889.849609 
	C3076.191406,2900.646484 3067.573975,2911.584961 3058.826172,2922.418213 
	C3055.484131,2926.557373 3051.167236,2930.139404 3048.726807,2934.736084 
	C3039.818604,2951.515869 3025.845947,2963.769775 3012.755615,2976.907471 
	C3002.882568,2986.815918 2992.628418,2995.931152 2980.365234,3003.018311 
	C2972.995850,3007.277344 2966.520752,3013.464844 2960.519287,3019.637207 
	C2944.057617,3036.569092 2924.105225,3048.487061 2903.627197,3059.429688 
	C2874.872559,3074.794189 2845.749023,3089.490234 2816.498291,3103.893799 
	C2802.826904,3110.625977 2788.589111,3116.173340 2773.961426,3120.758057 
	C2750.490723,3128.114258 2727.585205,3137.571289 2703.781494,3143.488525 
	C2677.381836,3150.050781 2650.281494,3153.868652 2623.404541,3158.395508 
	C2613.607666,3160.045410 2603.523926,3159.707520 2594.371582,3164.702148 
	C2591.632812,3166.196777 2587.967041,3166.373535 2584.705322,3166.471924 
	C2516.067383,3168.537354 2447.424072,3169.390381 2378.809570,3165.892090 
	C2369.613525,3165.422852 2360.530029,3162.970703 2351.361572,3161.671387 
	C2341.474365,3160.269775 2331.412598,3159.796875 2321.666504,3157.767822 
	C2298.889893,3153.025635 2276.198975,3147.834717 2253.585205,3142.362549 
	C2236.807129,3138.302734 2220.239990,3133.375732 2203.497070,3129.161133 
	C2199.792236,3128.228516 2195.741699,3128.668213 2190.438721,3128.406250 
	C2190.079834,3136.181396 2189.503174,3143.254883 2189.469238,3150.331299 
	C2189.308350,3184.328857 2189.263672,3218.326904 2189.234375,3252.324951 
	C2189.147461,3352.980225 2189.288086,3453.636230 2188.875977,3554.290283 
	C2188.772949,3579.487305 2195.212158,3602.718750 2204.479980,3625.829102 
	C2214.239502,3650.165771 2229.685547,3670.985352 2243.309082,3692.930664 
	C2247.082764,3699.009521 2252.501709,3704.626221 2258.364258,3708.752930 
	C2285.584229,3727.914062 2314.081055,3744.939697 2344.704102,3758.269775 
	C2357.852295,3763.993164 2371.389404,3765.652588 2385.603271,3765.446045 
	C2410.398438,3765.084961 2416.552734,3770.869873 2417.855469,3795.035400 
	C2418.463867,3806.327881 2418.084229,3817.679932 2417.919678,3829.001709 
	C2417.892822,3830.845215 2416.652832,3832.671387 2416.020264,3834.378906 
	C2399.470459,3836.295166 1758.151245,3835.891357 1742.398926,3833.989502 
	C1738.944702,3821.474609 1738.738647,3792.422363 1742.043701,3770.819092 
	C1750.402466,3767.318848 1759.360718,3766.063721 1768.678711,3765.084229 
	C1812.802612,3760.446777 1852.082642,3744.768555 1885.340698,3714.352783 
	C1908.596802,3693.083984 1927.653320,3668.682861 1944.670776,3642.450195 
	C1952.740601,3630.010498 1957.946899,3616.434326 1960.192017,3601.735596 
	C1960.686279,3598.500244 1961.135010,3595.160156 1962.311523,3592.144043 
	C1967.505249,3578.828613 1968.171631,3564.885254 1968.269287,3550.890381 
	C1968.501953,3517.560547 1968.624878,3484.229248 1968.659912,3450.898682 
	C1968.813965,3304.238770 1968.777466,3157.578613 1969.292114,3010.920166 
	C1969.338135,2997.810547 1965.765747,2988.135742 1955.815796,2979.644531 
	C1945.237793,2970.617188 1935.732422,2960.329590 1925.804932,2950.545166 
	C1917.716553,2942.573242 1910.824219,2933.919434 1905.624878,2923.541260 
	C1902.153564,2916.611572 1896.111816,2910.684082 1890.330200,2905.256104 
	C1877.504395,2893.214111 1867.876465,2879.159424 1860.656372,2863.202148 
	C1857.932007,2857.180664 1854.599854,2851.307617 1850.735840,2845.950439 
	C1833.086548,2821.481689 1820.593262,2794.422119 1810.533447,2766.199707 
	C1801.830688,2741.784180 1792.936646,2717.375732 1785.773682,2692.490479 
	C1779.174927,2669.564941 1772.230835,2646.633301 1769.707520,2622.637451 
	C1768.252930,2608.806396 1763.624146,2595.265137 1762.648560,2581.436523 
	C1760.681519,2553.553223 1760.317993,2525.559082 1759.111450,2497.618408 
	C1758.715088,2488.443604 1761.146240,2478.981201 1756.382568,2470.161865 
	C1755.515259,2468.556152 1755.045776,2465.979980 1755.714111,2464.416992 
	C1762.260620,2449.107910 1759.008667,2432.824463 1760.789062,2417.062500 
	C1760.926025,2415.850830 1761.891113,2414.732910 1762.757324,2412.998291 
	C1770.683472,2409.416260 1779.164185,2411.895996 1788.249878,2410.964844 
	C1791.295654,2421.977051 1791.706421,2431.915527 1790.117065,2441.594238 
	C1787.722656,2456.175537 1787.613403,2470.558350 1790.048706,2485.074219 
	C1790.700806,2488.960938 1790.852661,2492.962158 1790.898682,2496.914551 
	C1791.030762,2508.245850 1791.422852,2519.597168 1790.939941,2530.907959 
	C1789.332886,2568.555176 1796.869873,2604.770508 1805.530640,2641.162598 
	C1811.857422,2667.747559 1820.246338,2693.562988 1828.461304,2719.496094 
	C1831.464844,2728.977783 1835.591797,2738.104492 1839.227173,2747.385010 
	C1844.800049,2761.610840 1850.043945,2775.979980 1856.109985,2789.992920 
	C1859.529663,2797.892822 1863.362671,2805.969482 1868.705566,2812.600098 
	C1877.172607,2823.107666 1882.034790,2835.456543 1888.856323,2846.751709 
	C1900.817505,2866.556641 1911.876099,2887.091309 1928.643555,2903.599609 
	C1957.526245,2932.035889 1986.514893,2960.369873 2015.044678,2989.157471 
	C2025.524048,2999.731445 2038.102905,3007.113037 2050.140625,3015.406006 
	C2081.379883,3036.926758 2113.289062,3057.378174 2148.284180,3072.306396 
	C2170.290283,3081.693848 2192.725830,3090.111816 2215.171143,3098.418457 
	C2226.978271,3102.788086 2239.205811,3106.030273 2251.267578,3109.701660 
	C2283.752197,3119.589355 2317.094238,3125.318848 2350.614258,3130.221436 
	C2357.802734,3131.273193 2364.862549,3133.264648 2372.064453,3134.148438 
	C2383.938721,3135.605225 2395.868652,3137.330811 2407.795898,3137.503174 
	C2449.785400,3138.109619 2491.784180,3138.312012 2533.778564,3138.226318 
	C2550.402344,3138.192383 2567.149414,3137.998779 2582.853271,3130.949951 
	C2585.156738,3129.916016 2588.039062,3130.153320 2590.658691,3129.846191 
	C2596.607666,3129.148193 2602.714111,3129.104736 2608.482422,3127.682617 
	C2628.399414,3122.773682 2648.172607,3117.284424 2668.054688,3112.228760 
	C2677.658691,3109.787109 2687.509277,3108.263184 2697.028564,3105.551758 
	C2720.755615,3098.794434 2743.514404,3089.551514 2765.530518,3078.354004 
	C2774.942383,3073.567139 2785.003662,3070.072754 2794.675049,3065.777832 
	C2813.067139,3057.609375 2828.776123,3045.228760 2844.832275,3033.420654 
	C2852.856445,3027.519775 2860.799316,3021.502441 2868.654297,3015.378174 
	C2874.939697,3010.477295 2881.362549,3005.680908 2887.150635,3000.229248 
	C2899.760498,2988.354492 2912.287598,2976.365234 2924.334961,2963.925293 
	C2944.902832,2942.687744 2959.327881,2917.148682 2973.739990,2891.646240 
	C2976.326660,2887.069336 2978.653320,2882.301514 2981.660156,2878.014648 
	C2988.595215,2868.127197 2993.922363,2857.620361 2997.281738,2845.931641 
	C3001.311523,2831.908936 3006.745605,2818.280762 3010.569092,2804.209473 
	C3017.689941,2778.002686 3025.543213,2751.936279 3024.619873,2724.179932 
	C3024.202637,2711.634521 3026.255859,2699.025635 3026.452148,2686.434082 
	C3026.575195,2678.529053 3025.038330,2670.612549 3024.767334,2662.683350 
	C3024.357910,2650.694336 3024.506836,2638.687012 3024.207764,2626.692871 
	C3024.075195,2621.372559 3024.664551,2615.575439 3022.790283,2610.840088 
	C3016.158936,2594.085693 3015.375000,2575.918213 3009.144043,2559.042969 
	C3002.936523,2542.231689 2997.719727,2525.067383 2989.318359,2509.138428 
	C2988.696533,2507.959717 2987.730713,2506.851807 2987.486572,2505.601318 
	C2982.710449,2481.117188 2965.343750,2463.516357 2953.240479,2443.065674 
	C2941.288086,2422.870850 2925.778809,2405.558594 2908.654785,2389.556641 
	C2898.440186,2380.011230 2889.172852,2369.456543 2879.045898,2359.811523 
	C2867.049561,2348.385742 2855.064209,2337.267334 2840.531982,2328.456055 
	C2822.445312,2317.489502 2805.697754,2303.996826 2789.573242,2290.191895 
	C2768.687012,2272.310547 2745.642822,2257.963623 2721.886230,2244.514648 
	C2698.754639,2231.419434 2676.058105,2217.457764 2652.347656,2205.509277 
	C2626.814697,2192.642578 2603.732910,2175.710449 2578.228760,2162.899902 
	C2551.528076,2149.488525 2524.820312,2136.079834 2498.375977,2122.174072 
	C2484.891357,2115.083252 2472.187988,2106.514160 2458.759521,2099.305664 
	C2434.774414,2086.430176 2410.508545,2074.077881 2386.356689,2061.512695 
	C2384.030029,2060.302246 2381.385010,2059.501953 2379.388672,2057.890625 
	C2360.526123,2042.664307 2338.144043,2033.623291 2317.126221,2022.183716 
	C2305.502930,2015.857544 2293.969482,2009.363647 2282.462402,2002.827759 
	C2248.930908,1983.782471 2216.680176,1962.723267 2184.870605,1940.948730 
	C2161.875732,1925.208008 2138.303223,1910.295776 2115.562500,1894.202637 
	C2090.636963,1876.563599 2066.200928,1858.215454 2041.920898,1839.692383 
	C2034.629150,1834.129395 2028.495361,1827.024536 2021.965698,1820.491577 
	C2008.471191,1806.990356 1994.860474,1793.595093 1981.720093,1779.755005 
	C1975.841309,1773.563110 1971.008423,1766.382568 1965.650879,1759.690674 
	C1959.842773,1752.436157 1954.302002,1744.934082 1948.079590,1738.050781 
	C1921.431763,1708.573975 1901.158447,1675.372681 1888.606689,1637.590332 
	C1881.262939,1615.484619 1874.707397,1593.089966 1866.558350,1571.288330 
	C1860.845459,1556.004395 1858.602417,1540.557861 1858.774780,1524.491455 
	C1858.924927,1510.492188 1857.517700,1496.895874 1853.938843,1483.090088 
	C1849.070923,1464.311279 1851.169678,1444.631836 1852.254517,1425.389282 
	C1852.766602,1416.304321 1852.706177,1406.961548 1856.717041,1398.010498 
	C1859.021606,1392.867432 1858.158569,1386.244751 1858.458618,1380.274902 
	C1859.390259,1361.732666 1859.815308,1343.502930 1866.300781,1325.324951 
	C1871.591064,1310.496460 1872.699097,1294.091919 1879.022095,1279.259399 
	C1883.189087,1269.484497 1886.726807,1259.402832 1891.460815,1249.914917 
	C1907.182861,1218.404541 1921.229492,1186.021973 1940.271973,1156.222412 
	C1950.717651,1139.876099 1963.212524,1125.295288 1976.877808,1111.636353 
	C1992.434326,1096.087280 2008.257202,1080.794312 2023.484863,1064.929932 
	C2035.528931,1052.382446 2048.442871,1041.034180 2063.074219,1031.632812 
	C2086.566162,1016.538208 2108.728027,999.238281 2134.405762,987.751404 
	C2168.405029,972.541809 2202.870850,958.562622 2238.507812,947.488647 
	C2276.154297,935.790222 2314.762451,929.298950 2353.712158,924.199219 
	C2368.124023,922.312256 2382.417480,919.538330 2396.797852,917.388855 
	C2401.393311,916.701965 2406.095703,916.443848 2410.746826,916.469299 
	C2429.406494,916.571289 2448.065186,916.850769 2466.723633,917.092407 
	C2470.049805,917.135498 2473.683105,916.469299 2476.650879,917.558228 
	C2500.918457,926.463135 2526.458008,925.224426 2551.551025,926.945068 
	C2578.208252,928.773010 2604.254150,934.193787 2630.522461,938.356934 
	C2663.446289,943.574890 2695.284668,952.888306 2728.108154,964.509399 
z"/>
<path fill="#FCFCFC" opacity="1.000000" stroke="none" 
	d="
M1968.693848,2280.000488 
	C1968.718628,2256.670898 1967.815063,2235.290527 1968.995361,2214.025391 
	C1970.328857,2190.002686 1964.353516,2167.743164 1955.114746,2146.289307 
	C1946.972168,2127.380859 1938.556641,2108.290771 1927.601440,2090.962891 
	C1911.104736,2064.870117 1889.920166,2042.643677 1861.727539,2028.567993 
	C1845.714355,2020.572998 1829.696411,2012.106567 1812.805542,2006.478271 
	C1793.976807,2000.204102 1774.164062,1996.871094 1754.758789,1992.346924 
	C1750.349365,1991.318726 1745.854370,1990.656250 1740.249268,1989.611206 
	C1739.029785,1967.551514 1740.321655,1946.423828 1739.959839,1924.337280 
	C1744.495117,1923.655396 1748.230591,1922.604004 1751.965942,1922.603760 
	C1835.946045,1922.598267 1919.926392,1922.798218 2003.906128,1922.661133 
	C2012.614868,1922.646851 2019.424316,1924.675781 2024.632690,1931.951538 
	C2031.772949,1941.925659 2041.914185,1948.124146 2052.343262,1954.329590 
	C2066.571289,1962.795288 2079.931396,1972.712524 2093.735107,1981.899658 
	C2104.218994,1988.877075 2114.906738,1995.550537 2125.334961,2002.608154 
	C2135.747314,2009.654907 2145.905518,2017.075928 2156.267822,2024.197998 
	C2160.080078,2026.817871 2164.116455,2029.122070 2168.126953,2031.438354 
	C2170.970215,2033.080688 2174.063477,2034.309814 2176.823730,2036.070557 
	C2180.166748,2038.202881 2183.276611,2040.700806 2187.652344,2043.889648 
	C2188.215088,2055.903809 2189.295166,2068.456055 2189.312500,2081.009766 
	C2189.446777,2177.654053 2189.375244,2274.298096 2189.367188,2370.942383 
	C2189.359131,2469.584717 2189.342041,2568.227295 2189.345215,2666.869629 
	C2189.347656,2735.521240 2189.446045,2804.172607 2189.363037,2872.824219 
	C2189.325928,2903.473145 2188.993164,2934.122070 2188.697021,2964.770020 
	C2188.620605,2972.708984 2188.176758,2980.644043 2187.869141,2989.510010 
	C2184.499756,2989.075684 2181.859375,2989.244629 2179.629883,2988.368652 
	C2159.804443,2980.575439 2140.559570,2971.656982 2122.977295,2959.405762 
	C2108.258057,2949.149170 2092.414551,2940.426514 2079.975342,2927.122070 
	C2078.638916,2925.692627 2076.888916,2924.547607 2075.146240,2923.614746 
	C2046.305054,2908.171631 2027.243530,2881.965088 2004.713745,2859.588867 
	C2002.418823,2857.309570 2000.241699,2854.543945 1999.055054,2851.584717 
	C1995.236938,2842.063477 1989.189331,2834.484863 1981.517700,2827.725830 
	C1972.100220,2819.428467 1968.006592,2809.159180 1968.218140,2795.909180 
	C1968.973145,2748.595703 1968.579346,2701.263916 1968.593750,2653.938965 
	C1968.631836,2529.959473 1968.656006,2405.979980 1968.693848,2280.000488 
z"/>
</svg>