<svg width="44" height="44" viewBox="0 0 44 44" fill="none" xmlns="http://www.w3.org/2000/svg">
<g filter="url(#filter0_d_2805_4337)">
<rect x="5.14844" width="33.4655" height="32.7683" rx="6.55365" fill="url(#paint0_linear_2805_4337)"/>
<path d="M18.4758 16.3838C18.4758 14.5014 20.0009 12.9749 21.8828 12.9749C23.7646 12.9749 25.2906 14.5014 25.2906 16.3838C25.2906 18.2661 23.7646 19.7925 21.8828 19.7925C20.0009 19.7925 18.4758 18.2661 18.4758 16.3838ZM16.6335 16.3838C16.6335 19.2837 18.9836 21.6344 21.8828 21.6344C24.7819 21.6344 27.132 19.2837 27.132 16.3838C27.132 13.4837 24.7819 11.133 21.8828 11.133C18.9836 11.133 16.6335 13.4837 16.6335 16.3838ZM26.113 10.9248C26.1129 11.1675 26.1848 11.4048 26.3195 11.6066C26.4542 11.8085 26.6458 11.9659 26.8698 12.0588C27.094 12.1518 27.3406 12.1762 27.5785 12.1289C27.8166 12.0817 28.0352 11.9649 28.2068 11.7933C28.3785 11.6218 28.4954 11.4032 28.5428 11.1652C28.5902 10.9271 28.5661 10.6804 28.4733 10.4562C28.3805 10.2319 28.2234 10.0403 28.0216 9.9053C27.8199 9.77044 27.5828 9.69841 27.3402 9.69831C27.0149 9.69841 26.7027 9.82765 26.4727 10.0576C26.2426 10.2876 26.1133 10.5995 26.113 10.9248ZM17.7528 24.7071C16.7561 24.6617 16.2145 24.4956 15.8544 24.3554C15.3772 24.1694 15.0366 23.9481 14.6786 23.5905C14.3205 23.2328 14.0989 22.8925 13.9139 22.4151C13.7736 22.0551 13.6076 21.5131 13.5623 20.5161C13.5127 19.4383 13.5028 19.1145 13.5028 16.3839C13.5028 13.6531 13.5135 13.3303 13.5623 12.2515C13.6077 11.2545 13.775 10.7135 13.9139 10.3526C14.0997 9.87516 14.321 9.53454 14.6786 9.17635C15.0362 8.81826 15.3764 8.59657 15.8544 8.41144C16.2142 8.27107 16.7561 8.10505 17.7528 8.05969C18.8304 8.01014 19.154 8.00023 21.8828 8.00023C24.6115 8.00023 24.9354 8.01096 26.0139 8.05969C27.0106 8.10516 27.5514 8.2724 27.9123 8.41144C28.3895 8.59657 28.7301 8.81867 29.0881 9.17635C29.4462 9.53403 29.667 9.87516 29.8528 10.3526C29.9931 10.7125 30.1591 11.2545 30.2045 12.2515C30.254 13.3303 30.2639 13.6531 30.2639 16.3839C30.2639 19.1145 30.254 19.4374 30.2045 20.5161C30.159 21.5131 29.9922 22.055 29.8528 22.4151C29.667 22.8925 29.4457 23.2331 29.0881 23.5905C28.7305 23.9477 28.3895 24.1694 27.9123 24.3554C27.5525 24.4957 27.0106 24.6618 26.0139 24.7071C24.9363 24.7567 24.6127 24.7666 21.8828 24.7666C19.1528 24.7666 18.8301 24.7567 17.7528 24.7071ZM17.6682 6.22012C16.5799 6.26967 15.8363 6.44232 15.1869 6.69508C14.5143 6.95611 13.945 7.30633 13.376 7.87457C12.8071 8.44271 12.4579 9.01319 12.1969 9.68595C11.9442 10.3359 11.7716 11.0794 11.7221 12.1679C11.6717 13.2582 11.6602 13.6068 11.6602 16.3838C11.6602 19.1607 11.6717 19.5092 11.7221 20.5995C11.7716 21.6881 11.9442 22.4315 12.1969 23.0816C12.4579 23.7539 12.8072 24.325 13.376 24.893C13.9449 25.4609 14.5143 25.8106 15.1869 26.0724C15.8376 26.3252 16.5799 26.4978 17.6682 26.5473C18.7588 26.597 19.1066 26.6093 21.8828 26.6093C24.6589 26.6093 25.0074 26.5978 26.0973 26.5473C27.1857 26.4978 27.9288 26.3252 28.5786 26.0724C29.2508 25.8106 29.8205 25.4612 30.3895 24.893C30.9584 24.3247 31.3069 23.7539 31.5686 23.0816C31.8213 22.4315 31.9947 21.688 32.0434 20.5995C32.093 19.5084 32.1045 19.1607 32.1045 16.3838C32.1045 13.6068 32.093 13.2582 32.0434 12.1679C31.9939 11.0793 31.8213 10.3355 31.5686 9.68595C31.3069 9.0136 30.9575 8.44363 30.3895 7.87457C29.8215 7.30541 29.2508 6.95611 28.5794 6.69508C27.9289 6.44232 27.1856 6.26885 26.0982 6.22012C25.0082 6.17057 24.6597 6.1582 21.8836 6.1582C19.1074 6.1582 18.7588 6.16975 17.6682 6.22012Z" fill="url(#paint1_linear_2805_4337)"/>
</g>
<defs>
<filter id="filter0_d_2805_4337" x="0.000826359" y="0" width="43.7601" height="43.0638" filterUnits="userSpaceOnUse" color-interpolation-filters="sRGB">
<feFlood flood-opacity="0" result="BackgroundImageFix"/>
<feColorMatrix in="SourceAlpha" type="matrix" values="0 0 0 0 0 0 0 0 0 0 0 0 0 0 0 0 0 0 127 0" result="hardAlpha"/>
<feOffset dy="5.14761"/>
<feGaussianBlur stdDeviation="2.57381"/>
<feComposite in2="hardAlpha" operator="out"/>
<feColorMatrix type="matrix" values="0 0 0 0 0 0 0 0 0 0 0 0 0 0 0 0 0 0 0.25 0"/>
<feBlend mode="normal" in2="BackgroundImageFix" result="effect1_dropShadow_2805_4337"/>
<feBlend mode="normal" in="SourceGraphic" in2="effect1_dropShadow_2805_4337" result="shape"/>
</filter>
<linearGradient id="paint0_linear_2805_4337" x1="9.76436" y1="2.54237" x2="43.2399" y2="43.9124" gradientUnits="userSpaceOnUse">
<stop stop-color="#373737"/>
<stop offset="1"/>
</linearGradient>
<linearGradient id="paint1_linear_2805_4337" x1="21.8823" y1="6.1582" x2="21.8823" y2="26.6093" gradientUnits="userSpaceOnUse">
<stop stop-color="white"/>
<stop offset="1" stop-color="#999999"/>
</linearGradient>
</defs>
</svg>
