<svg width="44" height="44" viewBox="0 0 44 44" fill="none" xmlns="http://www.w3.org/2000/svg">
<g filter="url(#filter0_d_2805_4331)">
<rect x="5.14844" width="33.4655" height="32.7683" rx="6.55365" fill="url(#paint0_linear_2805_4331)"/>
<path d="M29.8016 7.08789H13.9586C13.1997 7.08789 12.5859 7.68701 12.5859 8.42781V24.3363C12.5859 25.0771 13.1997 25.6798 13.9586 25.6798H29.8016C30.5605 25.6798 31.1779 25.0771 31.1779 24.3399V8.42781C31.1779 7.68701 30.5605 7.08789 29.8016 7.08789ZM18.1018 22.931H15.342V14.0562H18.1018V22.931ZM16.7219 12.847C15.8359 12.847 15.1206 12.1317 15.1206 11.2493C15.1206 10.3669 15.8359 9.65153 16.7219 9.65153C17.6043 9.65153 18.3197 10.3669 18.3197 11.2493C18.3197 12.1281 17.6043 12.847 16.7219 12.847ZM28.429 22.931H25.6729V18.617C25.6729 17.5894 25.6548 16.264 24.2386 16.264C22.8042 16.264 22.5863 17.386 22.5863 18.5444V22.931H19.8339V14.0562H22.4774V15.2691H22.5137C22.8805 14.5719 23.7811 13.8347 25.121 13.8347C27.9134 13.8347 28.429 15.6722 28.429 18.0615V22.931Z" fill="url(#paint1_linear_2805_4331)"/>
</g>
<defs>
<filter id="filter0_d_2805_4331" x="0.000826359" y="0" width="43.7601" height="43.0638" filterUnits="userSpaceOnUse" color-interpolation-filters="sRGB">
<feFlood flood-opacity="0" result="BackgroundImageFix"/>
<feColorMatrix in="SourceAlpha" type="matrix" values="0 0 0 0 0 0 0 0 0 0 0 0 0 0 0 0 0 0 127 0" result="hardAlpha"/>
<feOffset dy="5.14761"/>
<feGaussianBlur stdDeviation="2.57381"/>
<feComposite in2="hardAlpha" operator="out"/>
<feColorMatrix type="matrix" values="0 0 0 0 0 0 0 0 0 0 0 0 0 0 0 0 0 0 0.25 0"/>
<feBlend mode="normal" in2="BackgroundImageFix" result="effect1_dropShadow_2805_4331"/>
<feBlend mode="normal" in="SourceGraphic" in2="effect1_dropShadow_2805_4331" result="shape"/>
</filter>
<linearGradient id="paint0_linear_2805_4331" x1="9.76436" y1="2.54237" x2="43.2399" y2="43.9124" gradientUnits="userSpaceOnUse">
<stop stop-color="#373737"/>
<stop offset="1"/>
</linearGradient>
<linearGradient id="paint1_linear_2805_4331" x1="21.8819" y1="7.08789" x2="21.8819" y2="25.6798" gradientUnits="userSpaceOnUse">
<stop stop-color="white"/>
<stop offset="1" stop-color="#999999"/>
</linearGradient>
</defs>
</svg>
