<svg width="44" height="44" viewBox="0 0 44 44" fill="none" xmlns="http://www.w3.org/2000/svg">
<g filter="url(#filter0_d_2805_4334)">
<rect x="5.14844" width="33.4655" height="32.7683" rx="6.55365" fill="url(#paint0_linear_2805_4334)"/>
<path d="M31.7578 10.4578C31.7578 9.37135 30.8689 8.48242 29.7824 8.48242H13.9793C12.8928 8.48242 12.0039 9.37135 12.0039 10.4578V22.3102C12.0039 23.3966 12.8928 24.2856 13.9793 24.2856H29.7824C30.8689 24.2856 31.7578 23.3966 31.7578 22.3102V10.4578ZM29.7824 10.4578L21.8809 15.3963L13.9793 10.4578H29.7824ZM29.7824 22.3102H13.9793V12.4332L21.8809 17.3717L29.7824 12.4332V22.3102Z" fill="url(#paint1_linear_2805_4334)"/>
</g>
<defs>
<filter id="filter0_d_2805_4334" x="0.000826359" y="0" width="43.7601" height="43.0638" filterUnits="userSpaceOnUse" color-interpolation-filters="sRGB">
<feFlood flood-opacity="0" result="BackgroundImageFix"/>
<feColorMatrix in="SourceAlpha" type="matrix" values="0 0 0 0 0 0 0 0 0 0 0 0 0 0 0 0 0 0 127 0" result="hardAlpha"/>
<feOffset dy="5.14761"/>
<feGaussianBlur stdDeviation="2.57381"/>
<feComposite in2="hardAlpha" operator="out"/>
<feColorMatrix type="matrix" values="0 0 0 0 0 0 0 0 0 0 0 0 0 0 0 0 0 0 0.25 0"/>
<feBlend mode="normal" in2="BackgroundImageFix" result="effect1_dropShadow_2805_4334"/>
<feBlend mode="normal" in="SourceGraphic" in2="effect1_dropShadow_2805_4334" result="shape"/>
</filter>
<linearGradient id="paint0_linear_2805_4334" x1="9.76436" y1="2.54237" x2="43.2399" y2="43.9124" gradientUnits="userSpaceOnUse">
<stop stop-color="#373737"/>
<stop offset="1"/>
</linearGradient>
<linearGradient id="paint1_linear_2805_4334" x1="21.8809" y1="8.36622" x2="21.8809" y2="24.1694" gradientUnits="userSpaceOnUse">
<stop stop-color="white"/>
<stop offset="1" stop-color="#999999"/>
</linearGradient>
</defs>
</svg>
