<svg width="517" height="135" viewBox="0 0 517 135" fill="none" xmlns="http://www.w3.org/2000/svg">
<path d="M51.0157 57.15L48.4657 58.125V17.4H56.9407V66H48.4657L12.0157 26.475L14.6407 25.5V66H6.09072V17.4H14.6407L51.0157 57.15ZM102.39 53.7H110.415C110.015 56.25 109.015 58.525 107.415 60.525C105.865 62.475 103.74 64.025 101.04 65.175C98.3396 66.275 95.1146 66.825 91.3646 66.825C87.1146 66.825 83.3146 66.05 79.9646 64.5C76.6146 62.9 73.9896 60.65 72.0896 57.75C70.1896 54.85 69.2396 51.4 69.2396 47.4C69.2396 43.45 70.1646 40 72.0146 37.05C73.8646 34.1 76.4146 31.825 79.6646 30.225C82.9646 28.625 86.7646 27.825 91.0646 27.825C95.5146 27.825 99.2146 28.625 102.165 30.225C105.165 31.775 107.39 34.125 108.84 37.275C110.29 40.375 110.89 44.3 110.64 49.05H77.7146C77.9646 51.15 78.6396 53.05 79.7396 54.75C80.8896 56.4 82.4396 57.7 84.3896 58.65C86.3396 59.55 88.6146 60 91.2146 60C94.1146 60 96.5396 59.425 98.4896 58.275C100.49 57.125 101.79 55.6 102.39 53.7ZM90.8396 34.575C87.4396 34.575 84.6396 35.425 82.4396 37.125C80.2396 38.775 78.8146 40.9 78.1646 43.5H102.24C102.04 40.7 100.915 38.525 98.8646 36.975C96.8146 35.375 94.1396 34.575 90.8396 34.575ZM158.3 28.65L140.75 49.275L127.55 66H117.35L135.8 44.25L148.175 28.65H158.3ZM117.35 28.65H127.625L140.825 44.25L159.275 66H149.075L135.425 49.425L117.35 28.65ZM166.665 28.65H193.065V35.475H166.665V28.65ZM175.665 18.6H184.065V66H175.665V18.6ZM232.798 49.725V42.6H252.448C255.198 42.6 257.398 41.8 259.048 40.2C260.748 38.6 261.598 36.45 261.598 33.75C261.598 30.95 260.748 28.775 259.048 27.225C257.398 25.625 255.198 24.825 252.448 24.825H233.998V66H225.448V17.4H251.848C254.398 17.4 256.773 17.75 258.973 18.45C261.173 19.1 263.098 20.1 264.748 21.45C266.448 22.8 267.748 24.5 268.648 26.55C269.598 28.55 270.073 30.95 270.073 33.75C270.073 36.5 269.598 38.9 268.648 40.95C267.748 42.95 266.448 44.6 264.748 45.9C263.098 47.2 261.173 48.175 258.973 48.825C256.773 49.425 254.398 49.725 251.848 49.725H232.798ZM281.981 28.65H290.306V66H281.981V28.65ZM303.806 35.775C301.106 35.775 298.781 36.35 296.831 37.5C294.931 38.65 293.406 40.05 292.256 41.7C291.106 43.35 290.306 44.95 289.856 46.5L289.781 42.3C289.831 41.75 290.006 40.925 290.306 39.825C290.606 38.675 291.056 37.425 291.656 36.075C292.306 34.725 293.156 33.425 294.206 32.175C295.306 30.875 296.631 29.825 298.181 29.025C299.781 28.225 301.656 27.825 303.806 27.825V35.775ZM333.731 66.825C329.581 66.825 325.856 66.075 322.556 64.575C319.256 63.075 316.656 60.875 314.756 57.975C312.856 55.075 311.906 51.55 311.906 47.4C311.906 43.3 312.856 39.8 314.756 36.9C316.656 33.95 319.256 31.7 322.556 30.15C325.856 28.6 329.581 27.825 333.731 27.825C337.881 27.825 341.581 28.6 344.831 30.15C348.081 31.7 350.631 33.95 352.481 36.9C354.381 39.8 355.331 43.3 355.331 47.4C355.331 51.55 354.381 55.075 352.481 57.975C350.631 60.875 348.081 63.075 344.831 64.575C341.581 66.075 337.881 66.825 333.731 66.825ZM333.731 60C336.131 60 338.331 59.525 340.331 58.575C342.331 57.625 343.906 56.2 345.056 54.3C346.256 52.4 346.856 50.1 346.856 47.4C346.856 44.7 346.256 42.4 345.056 40.5C343.906 38.6 342.331 37.15 340.331 36.15C338.381 35.1 336.181 34.575 333.731 34.575C331.281 34.575 329.056 35.075 327.056 36.075C325.056 37.075 323.431 38.525 322.181 40.425C320.981 42.325 320.381 44.65 320.381 47.4C320.381 50.1 320.981 52.4 322.181 54.3C323.381 56.2 324.981 57.625 326.981 58.575C329.031 59.525 331.281 60 333.731 60ZM367.206 28.65H375.606V81H367.206V28.65ZM376.281 12.825V20.85H366.306V12.825H376.281ZM420.378 53.7H428.403C428.003 56.25 427.003 58.525 425.403 60.525C423.853 62.475 421.728 64.025 419.028 65.175C416.328 66.275 413.103 66.825 409.353 66.825C405.103 66.825 401.303 66.05 397.953 64.5C394.603 62.9 391.978 60.65 390.078 57.75C388.178 54.85 387.228 51.4 387.228 47.4C387.228 43.45 388.153 40 390.003 37.05C391.853 34.1 394.403 31.825 397.653 30.225C400.953 28.625 404.753 27.825 409.053 27.825C413.503 27.825 417.203 28.625 420.153 30.225C423.153 31.775 425.378 34.125 426.828 37.275C428.278 40.375 428.878 44.3 428.628 49.05H395.703C395.953 51.15 396.628 53.05 397.728 54.75C398.878 56.4 400.428 57.7 402.378 58.65C404.328 59.55 406.603 60 409.203 60C412.103 60 414.528 59.425 416.478 58.275C418.478 57.125 419.778 55.6 420.378 53.7ZM408.828 34.575C405.428 34.575 402.628 35.425 400.428 37.125C398.228 38.775 396.803 40.9 396.153 43.5H420.228C420.028 40.7 418.903 38.525 416.853 36.975C414.803 35.375 412.128 34.575 408.828 34.575ZM480.003 51.525C479.703 54.725 478.678 57.475 476.928 59.775C475.178 62.075 472.828 63.825 469.878 65.025C466.978 66.225 463.628 66.825 459.828 66.825C455.728 66.825 452.003 66.075 448.653 64.575C445.353 63.075 442.728 60.875 440.778 57.975C438.828 55.075 437.853 51.55 437.853 47.4C437.853 43.25 438.828 39.725 440.778 36.825C442.728 33.925 445.353 31.7 448.653 30.15C452.003 28.6 455.728 27.825 459.828 27.825C463.628 27.825 466.978 28.45 469.878 29.7C472.778 30.9 475.103 32.625 476.853 34.875C478.603 37.125 479.628 39.85 479.928 43.05H472.278C471.428 40.4 469.878 38.35 467.628 36.9C465.428 35.4 462.828 34.65 459.828 34.65C457.378 34.65 455.128 35.15 453.078 36.15C451.028 37.1 449.378 38.525 448.128 40.425C446.928 42.275 446.328 44.6 446.328 47.4C446.328 50.15 446.928 52.475 448.128 54.375C449.378 56.275 451.028 57.7 453.078 58.65C455.128 59.55 457.378 60 459.828 60C463.128 60 465.828 59.275 467.928 57.825C470.078 56.325 471.553 54.225 472.353 51.525H480.003ZM488.462 28.65H514.862V35.475H488.462V28.65ZM497.462 18.6H505.862V66H497.462V18.6Z" fill="url(#paint0_linear_894_4592)"/>
<path d="M50.7568 128C50.2046 128 49.7568 128.448 49.7568 129C49.7568 129.552 50.2046 130 50.7568 130V129V128ZM466.243 129L456.243 123.226V134.774L466.243 129ZM50.7568 129V130H457.243V129V128H50.7568V129Z" fill="white"/>
<defs>
<linearGradient id="paint0_linear_894_4592" x1="258.822" y1="23.5" x2="258.732" y2="88.9999" gradientUnits="userSpaceOnUse">
<stop stop-color="white"/>
<stop offset="1" stop-color="#999999"/>
</linearGradient>
</defs>
</svg>
