<svg width="24" height="24" viewBox="0 0 24 24" fill="none" xmlns="http://www.w3.org/2000/svg">
<g clip-path="url(#clip0_2429_6681)">
<path d="M22.4032 11.9484C22.4056 12.2547 22.3125 12.5542 22.1368 12.8051C21.9612 13.0561 21.7117 13.246 21.4231 13.3486L15.5012 15.5021L13.3486 21.4231C13.2425 21.7089 13.0515 21.9554 12.8012 22.1295C12.5509 22.3036 12.2533 22.3969 11.9484 22.3969C11.6436 22.3969 11.346 22.3036 11.0957 22.1295C10.8454 21.9554 10.6544 21.7089 10.5483 21.4231L8.39569 15.5012L2.47381 13.3486C2.18798 13.2425 1.94147 13.0515 1.76739 12.8012C1.59331 12.5509 1.5 12.2533 1.5 11.9484C1.5 11.6436 1.59331 11.346 1.76739 11.0957C1.94147 10.8454 2.18798 10.6544 2.47381 10.5483L8.39569 8.39569L10.5483 2.47381C10.6544 2.18798 10.8454 1.94147 11.0957 1.76739C11.346 1.59331 11.6436 1.5 11.9484 1.5C12.2533 1.5 12.5509 1.59331 12.8012 1.76739C13.0515 1.94147 13.2425 2.18798 13.3486 2.47381L15.5021 8.39569L21.4231 10.5483C21.7117 10.6509 21.9612 10.8408 22.1368 11.0918C22.3125 11.3427 22.4056 11.6421 22.4032 11.9484Z" fill="white"/>
</g>
<defs>
<clipPath id="clip0_2429_6681">
<rect width="23.8966" height="23.8966" fill="white"/>
</clipPath>
</defs>
</svg>
