<svg width="39" height="39" viewBox="0 0 39 39" fill="none" xmlns="http://www.w3.org/2000/svg">
<rect x="-0.5625" y="0.5625" width="37.875" height="37.875" rx="18.9375" transform="matrix(-1 0 0 1 37.875 0)" stroke="url(#paint0_linear_894_4838)" stroke-width="1.125"/>
<path d="M27 20.25C27.4142 20.25 27.75 19.9142 27.75 19.5C27.75 19.0858 27.4142 18.75 27 18.75V19.5V20.25ZM11.4697 18.9697C11.1768 19.2626 11.1768 19.7374 11.4697 20.0303L16.2426 24.8033C16.5355 25.0962 17.0104 25.0962 17.3033 24.8033C17.5962 24.5104 17.5962 24.0355 17.3033 23.7426L13.0607 19.5L17.3033 15.2574C17.5962 14.9645 17.5962 14.4896 17.3033 14.1967C17.0104 13.9038 16.5355 13.9038 16.2426 14.1967L11.4697 18.9697ZM27 19.5V18.75L12 18.75V19.5V20.25L27 20.25V19.5Z" fill="url(#paint1_linear_894_4838)"/>
<defs>
<linearGradient id="paint0_linear_894_4838" x1="0" y1="19.5" x2="39" y2="19.5" gradientUnits="userSpaceOnUse">
<stop stop-color="white"/>
<stop offset="1" stop-color="#999999"/>
</linearGradient>
<linearGradient id="paint1_linear_894_4838" x1="11.1346" y1="19.5" x2="27" y2="19.5" gradientUnits="userSpaceOnUse">
<stop stop-color="white"/>
<stop offset="1" stop-color="#999999"/>
</linearGradient>
</defs>
</svg>
