<svg width="18" height="18" viewBox="0 0 18 18" fill="none" xmlns="http://www.w3.org/2000/svg">
<path fill-rule="evenodd" clip-rule="evenodd" d="M8.66262 0.756361C7.26658 0.756141 6.41467 0.756007 5.70489 0.986628C4.27265 1.45199 3.14975 2.57489 2.68439 4.00713C2.45376 4.71692 2.4539 5.56882 2.45411 6.96487L2.45413 13.1693C2.45412 13.93 2.45412 14.538 2.491 15.0061C2.52733 15.4675 2.60462 15.9051 2.83883 16.2523C3.3088 16.949 4.12788 17.3257 4.96273 17.2291C5.37877 17.181 5.76129 16.9549 6.1352 16.6822C6.51466 16.4055 6.97627 16.0099 7.55384 15.5149L7.57495 15.4967C8.14015 15.0123 8.30103 14.8878 8.45431 14.8336C8.67478 14.7558 8.91529 14.7558 9.13577 14.8336C9.28905 14.8878 9.44993 15.0123 10.0151 15.4967L10.0362 15.5149C10.6138 16.0099 11.0754 16.4055 11.4548 16.6822C11.8287 16.9549 12.2113 17.181 12.6274 17.2291C13.4622 17.3257 14.2812 16.949 14.7512 16.2523C14.9855 15.9051 15.0628 15.4675 15.0991 15.0061C15.1359 14.538 15.1359 13.93 15.1359 13.1694L15.136 6.96488C15.1362 5.56883 15.1363 4.71692 14.9057 4.00713C14.4403 2.57489 13.3174 1.45199 11.8852 0.986628C11.1754 0.756007 10.3235 0.756141 8.92745 0.756361H8.66262ZM6.08414 2.15384C6.58463 1.99122 7.22441 1.98365 8.79504 1.98365C10.3657 1.98365 11.0054 1.99122 11.506 2.15384C12.5645 2.4978 13.3945 3.32777 13.7385 4.38639C13.9011 4.88688 13.9086 5.52665 13.9086 7.09728V13.1415C13.9086 13.9363 13.9082 14.4957 13.8756 14.9097C13.842 15.3364 13.7794 15.4984 13.7338 15.5659C13.5202 15.8826 13.1479 16.0539 12.7684 16.0099C12.6874 16.0006 12.5237 15.9428 12.1779 15.6906C11.8423 15.4459 11.4173 15.0822 10.8138 14.565L10.7326 14.4952C10.2891 14.1144 9.94321 13.8173 9.54464 13.6765C9.0596 13.5051 8.53048 13.5051 8.04543 13.6765C7.64686 13.8173 7.30098 14.1144 6.85743 14.4952L6.77625 14.565C6.17275 15.0822 5.74778 15.4459 5.41214 15.6906C5.06634 15.9428 4.90263 16.0006 4.82167 16.0099C4.4422 16.0539 4.06989 15.8826 3.85627 15.5659C3.81069 15.4984 3.74809 15.3364 3.71448 14.9097C3.68186 14.4957 3.6814 13.9363 3.6814 13.1415V7.09728C3.6814 5.52665 3.68898 4.88688 3.85159 4.38639C4.19555 3.32777 5.02552 2.4978 6.08414 2.15384Z" fill="white"/>
</svg>
