<svg width="15" height="15" viewBox="0 0 15 15" fill="none" xmlns="http://www.w3.org/2000/svg">
<path d="M5.08764 2.93157C5.33737 2.89201 5.50777 2.65749 5.46821 2.40776C5.42865 2.15802 5.19414 1.98763 4.9444 2.02719C3.44249 2.26506 2.26457 3.44299 2.0267 4.94489C1.98714 5.19462 2.15753 5.42914 2.40727 5.4687C2.657 5.50825 2.89152 5.33786 2.93108 5.08813C3.1069 3.97803 3.97754 3.10739 5.08764 2.93157Z" fill="url(#paint0_linear_899_10870)"/>
<path fill-rule="evenodd" clip-rule="evenodd" d="M6.10457 0.152588C2.81751 0.152588 0.152832 2.81727 0.152832 6.10433C0.152832 9.3914 2.81751 12.0561 6.10457 12.0561C9.39164 12.0561 12.0563 9.3914 12.0563 6.10433C12.0563 2.81727 9.39164 0.152588 6.10457 0.152588ZM1.06848 6.10433C1.06848 3.32297 3.32322 1.06824 6.10457 1.06824C8.88589 1.06824 11.1407 3.32297 11.1407 6.10433C11.1407 8.88565 8.88589 11.1404 6.10457 11.1404C3.32322 11.1404 1.06848 8.88565 1.06848 6.10433Z" fill="url(#paint1_linear_899_10870)"/>
<path d="M11.3114 10.6641C11.1326 10.4853 10.8427 10.4853 10.6639 10.6641C10.4851 10.8429 10.4851 11.1328 10.6639 11.3116L13.1056 13.7533C13.2844 13.9321 13.5743 13.9321 13.753 13.7533C13.9318 13.5745 13.9318 13.2846 13.753 13.1058L11.3114 10.6641Z" fill="url(#paint2_linear_899_10870)"/>
<defs>
<linearGradient id="paint0_linear_899_10870" x1="3.74745" y1="2.02148" x2="3.74745" y2="5.4744" gradientUnits="userSpaceOnUse">
<stop stop-color="white"/>
<stop offset="1" stop-color="#999999"/>
</linearGradient>
<linearGradient id="paint1_linear_899_10870" x1="6.10457" y1="0.152588" x2="6.10457" y2="12.0561" gradientUnits="userSpaceOnUse">
<stop stop-color="white"/>
<stop offset="1" stop-color="#999999"/>
</linearGradient>
<linearGradient id="paint2_linear_899_10870" x1="12.2085" y1="10.53" x2="12.2085" y2="13.8874" gradientUnits="userSpaceOnUse">
<stop stop-color="white"/>
<stop offset="1" stop-color="#999999"/>
</linearGradient>
</defs>
</svg>
