<svg width="18" height="18" viewBox="0 0 18 18" fill="none" xmlns="http://www.w3.org/2000/svg">
<path fill-rule="evenodd" clip-rule="evenodd" d="M17.3502 5.42378C17.9003 2.55584 15.3824 0.037981 12.5144 0.588006L4.28032 2.16718C2.49036 2.51047 1.05887 3.86537 0.604076 5.62593C-0.303943 9.14094 2.95589 12.3535 6.45608 11.3242C6.55274 11.2957 6.64254 11.3855 6.61412 11.4822C5.5848 14.9824 8.79729 18.2422 12.3124 17.3342C14.0729 16.8794 15.4278 15.4479 15.7711 13.6579L17.3502 5.42378ZM12.7688 1.91384C14.6995 1.54354 16.3947 3.23868 16.0244 5.1695L14.4453 13.4037C14.201 14.6771 13.2342 15.7018 11.9747 16.0271C9.4573 16.6774 7.1808 14.3402 7.90928 11.8631C8.23915 10.7413 7.19695 9.69912 6.0752 10.029C3.59804 10.7574 1.26086 8.48098 1.91117 5.96358C2.23652 4.70409 3.26119 3.73724 4.53459 3.49303L12.7688 1.91384Z" fill="white"/>
</svg>
