<svg width="32" height="32" viewBox="0 0 32 32" fill="none" xmlns="http://www.w3.org/2000/svg">
<path d="M31.375 0.437256V31.6873H0.125V0.437256H31.375ZM24.2188 14.698C21.5266 14.6981 19.8039 16.4187 19.8037 18.6785C19.8037 21.1319 21.2493 22.2931 23.4248 23.2195L24.1787 23.5427C25.5533 24.1437 26.373 24.5096 26.373 25.5427C26.373 26.4049 25.5752 27.029 24.3262 27.0291C22.8392 27.0291 21.9978 26.2536 21.3516 25.199L18.9023 26.6218C19.7874 28.3696 21.5959 29.7028 24.3955 29.7029C27.259 29.7029 29.3916 28.2167 29.3916 25.5037C29.3915 22.9874 27.9451 21.8681 25.3838 20.7703L24.6299 20.448C23.3365 19.8881 22.7765 19.5218 22.7764 18.6179C22.7764 17.8865 23.3358 17.326 24.2188 17.3259C25.0845 17.3259 25.6423 17.6915 26.1592 18.6179L28.5068 17.1111C27.5138 15.3652 26.1355 14.698 24.2188 14.698ZM14.2578 14.8708V25.1169C14.2577 26.6227 13.6328 27.0104 12.6426 27.0105C11.6069 27.0105 11.1757 26.3004 10.7021 25.4607L8.24805 26.9451C8.95894 28.4489 10.3568 29.698 12.7705 29.698C15.442 29.698 17.2725 28.2772 17.2725 25.157V14.8708H14.2578Z" fill="url(#paint0_linear_2189_3994)"/>
<defs>
<linearGradient id="paint0_linear_2189_3994" x1="0.125" y1="16.0623" x2="31.375" y2="16.0623" gradientUnits="userSpaceOnUse">
<stop stop-color="white"/>
<stop offset="1" stop-color="#999999"/>
</linearGradient>
</defs>
</svg>
