<svg width="38" height="29" viewBox="0 0 38 29" fill="none" xmlns="http://www.w3.org/2000/svg">
<path fill-rule="evenodd" clip-rule="evenodd" d="M0.734375 0.753962V28.4064C0.734375 28.6482 0.841783 28.7557 1.0566 28.7557H6.26589C6.45385 28.7288 6.58811 28.5676 6.56126 28.3795V19.7532C7.07145 19.7532 7.44738 19.7532 7.7159 19.7801C7.9844 19.807 8.41399 19.807 9.05836 19.807C11.2602 19.807 13.2743 19.5651 15.1002 18.8933C16.8456 18.2483 18.3493 17.1197 19.4234 15.6148C20.4974 14.1099 21.0345 12.2019 21.0345 9.89081C21.0345 8.68152 20.8197 7.52598 20.4169 6.39731C19.9873 5.24177 19.316 4.19372 18.4567 3.33378C17.4363 2.33947 16.2011 1.58703 14.8585 1.13019C13.3548 0.565851 11.5289 0.297119 9.32702 0.297119C8.52146 0.297119 7.7159 0.297119 6.88348 0.323993C6.48161 0.336967 6.09226 0.343677 5.71542 0.350171C5.3117 0.357129 4.92235 0.363839 4.54736 0.377738C4.19572 0.390772 3.85672 0.397484 3.52729 0.404007C3.17749 0.410933 2.83849 0.417645 2.50661 0.431485C1.88901 0.458358 1.45938 0.458358 1.0029 0.458358C0.814931 0.458358 0.734375 0.56585 0.734375 0.753962ZM6.58811 14.7011V5.67174C6.77608 5.64486 7.152 5.61799 7.68904 5.64486C8.19922 5.61799 8.81681 5.61799 9.51494 5.61799C10.6159 5.59112 11.69 5.75235 12.6835 6.15545C13.4622 6.45106 14.1067 6.98852 14.5632 7.68722C14.9928 8.41279 15.2076 9.24586 15.1808 10.0789C15.1808 11.2613 14.9122 12.175 14.3483 12.8468C13.7576 13.5187 13.0057 14.0293 12.1465 14.2711C11.153 14.5936 10.1057 14.7548 9.0585 14.7548H7.63534C7.33624 14.7548 7.01401 14.7317 6.66864 14.7069C6.64194 14.7049 6.61509 14.703 6.58811 14.7011Z" fill="url(#paint0_linear_2189_2393)"/>
<path d="M29.6003 7.25713H24.9012C24.8743 7.23026 24.8206 7.23026 24.8206 7.25713C24.6863 7.28401 24.6058 7.41837 24.6326 7.55274L24.6391 7.62691C24.6906 8.21824 24.74 8.78679 24.74 9.38011C24.7535 9.72946 24.7602 10.0788 24.7669 10.4282C24.7736 10.7775 24.7803 11.1269 24.7938 11.4762C24.8206 12.1749 24.8206 12.8466 24.8206 13.4916V28.4869C24.8475 28.7019 25.0354 28.8362 25.2502 28.8093H30.5401C30.7817 28.8093 30.8892 28.7019 30.8892 28.4331V14.7279C31.2651 14.2979 31.7484 13.9754 32.2586 13.7335C32.9836 13.4111 33.7355 13.1692 34.5142 13.008C35.454 12.793 36.4475 12.7124 37.4142 12.7392C37.7096 12.7392 37.8438 12.6586 37.8438 12.4436V7.0959C37.817 6.90778 37.6559 6.77342 37.4679 6.80029C36.0447 6.80029 34.6216 7.14964 33.3864 7.84834C32.2855 8.43955 31.3188 9.21887 30.5132 10.1594C30.5132 9.81008 30.4864 9.4876 30.4595 9.192C30.4327 8.92327 30.379 8.62766 30.3253 8.35893C30.2984 8.11707 30.2447 7.90209 30.1642 7.68711C30.0836 7.44525 29.8688 7.25713 29.6003 7.25713Z" fill="url(#paint1_linear_2189_2393)"/>
<defs>
<linearGradient id="paint0_linear_2189_2393" x1="0.734375" y1="14.5549" x2="37.8438" y2="14.5549" gradientUnits="userSpaceOnUse">
<stop stop-color="white"/>
<stop offset="1" stop-color="#999999"/>
</linearGradient>
<linearGradient id="paint1_linear_2189_2393" x1="0.734375" y1="14.5549" x2="37.8438" y2="14.5549" gradientUnits="userSpaceOnUse">
<stop stop-color="white"/>
<stop offset="1" stop-color="#999999"/>
</linearGradient>
</defs>
</svg>
