<svg width="38" height="29" viewBox="0 0 38 29" fill="none" xmlns="http://www.w3.org/2000/svg">
<path fill-rule="evenodd" clip-rule="evenodd" d="M0.734375 0.745975V27.9149C0.734375 28.1526 0.837165 28.2582 1.04275 28.2582H6.02807C6.20795 28.2318 6.33644 28.0734 6.31074 27.8885V19.4131C6.79899 19.4131 7.15876 19.4131 7.41574 19.4395C7.67271 19.4659 8.08387 19.4659 8.70061 19.4659C10.8078 19.4659 12.7351 19.2283 14.4826 18.5682C16.1529 17.9345 17.592 16.8256 18.6199 15.347C19.6478 13.8684 20.1617 11.9938 20.1617 9.72308C20.1617 8.53494 19.9561 7.3996 19.5707 6.29066C19.1595 5.15532 18.5171 4.12559 17.6948 3.28069C16.7182 2.30377 15.5362 1.56448 14.2513 1.11562C12.8122 0.561151 11.0648 0.297119 8.95759 0.297119C8.18666 0.297119 7.41574 0.297119 6.61911 0.323522C6.23452 0.336269 5.86191 0.342862 5.50127 0.349243C5.11491 0.356079 4.74229 0.362672 4.38343 0.376329C4.04691 0.389135 3.72248 0.39573 3.40721 0.402138C3.07245 0.408943 2.74803 0.415538 2.43041 0.429135C1.83938 0.455538 1.42822 0.455538 0.991371 0.455538C0.811488 0.455538 0.734375 0.561152 0.734375 0.745975ZM6.33644 14.4229V5.55137C6.51632 5.52497 6.87609 5.49856 7.39004 5.52497C7.87829 5.49856 8.46933 5.49856 9.13747 5.49856C10.1911 5.47216 11.219 5.63058 12.1698 6.02663C12.915 6.31706 13.5318 6.84513 13.9686 7.53161C14.3798 8.2445 14.5854 9.063 14.5597 9.88151C14.5597 11.0432 14.3027 11.941 13.763 12.601C13.1977 13.2611 12.4782 13.7628 11.6558 14.0004C10.705 14.3173 9.70282 14.4757 8.70061 14.4757H7.33864C7.05239 14.4757 6.744 14.4529 6.41347 14.4285C6.38793 14.4267 6.36225 14.4248 6.33644 14.4229Z" fill="url(#paint0_linear_2189_716)"/>
<path d="M33.73 11.9146C34.6037 12.0994 35.426 12.3899 36.1969 12.8123C36.2997 12.8651 36.4282 12.8651 36.6595 12.8123C36.7366 12.7595 36.788 12.6539 36.788 12.5483V8.24456C36.788 8.13895 36.7623 8.03334 36.7366 7.92773C36.6852 7.82211 36.5824 7.7165 36.4796 7.6901C35.7858 7.39966 35.0405 7.18843 34.2696 7.08282C33.216 6.9244 32.1367 6.84519 31.0831 6.84519C29.2586 6.84519 27.7424 7.13563 26.5346 7.76931C25.4296 8.29737 24.4788 9.14228 23.8364 10.1984C23.2711 11.1753 22.9627 12.2579 22.9627 13.3932C22.937 14.3173 23.1426 15.2414 23.5537 16.0863C24.042 16.984 24.7101 17.7497 25.5067 18.3306C26.6374 19.1227 27.8452 19.7564 29.1558 20.2316C30.415 20.7333 31.263 21.1294 31.6742 21.4726C32.0853 21.8158 32.2909 22.1591 32.2909 22.5287C32.2909 23.004 32.0082 23.4528 31.5971 23.6377C31.1345 23.8753 30.4407 24.0073 29.4642 24.0073C28.4363 24.0073 27.4084 23.8753 26.4319 23.6113C25.3012 23.3472 24.2476 22.9248 23.2454 22.3175C23.1683 22.2647 23.0912 22.2383 23.0141 22.2911C22.937 22.3439 22.9113 22.4495 22.9113 22.5287V27.1229C22.8856 27.3341 23.0141 27.5189 23.194 27.6246C24.0163 28.0206 24.9157 28.311 25.8151 28.4695C26.9715 28.7071 28.1279 28.8127 29.31 28.8127C31.1602 28.8127 32.7021 28.5223 33.9612 27.9678C35.1176 27.4925 36.1198 26.674 36.8394 25.6179C37.5075 24.5882 37.8673 23.3472 37.8416 22.1063C37.8673 21.1558 37.6617 20.2316 37.2505 19.3867C36.7623 18.489 36.0684 17.7497 35.2204 17.1953C33.9869 16.4032 32.6507 15.7431 31.263 15.2678C30.6463 15.0038 30.0295 14.7134 29.4385 14.3965C29.1044 14.2117 28.796 13.9741 28.5648 13.6836C28.4106 13.4724 28.3078 13.2348 28.3078 12.9972C28.3078 12.7595 28.3849 12.4955 28.5134 12.2843C28.6932 12.0202 28.9759 11.8354 29.31 11.7562C29.7982 11.6242 30.3379 11.545 30.8518 11.5714C31.8283 11.5714 32.7791 11.7034 33.73 11.9146Z" fill="url(#paint1_linear_2189_716)"/>
<defs>
<linearGradient id="paint0_linear_2189_716" x1="0.734375" y1="14.5549" x2="37.8437" y2="14.5549" gradientUnits="userSpaceOnUse">
<stop stop-color="white"/>
<stop offset="1" stop-color="#999999"/>
</linearGradient>
<linearGradient id="paint1_linear_2189_716" x1="0.734375" y1="14.5549" x2="37.8437" y2="14.5549" gradientUnits="userSpaceOnUse">
<stop stop-color="white"/>
<stop offset="1" stop-color="#999999"/>
</linearGradient>
</defs>
</svg>
