<svg width="43" height="38" viewBox="0 0 43 38" fill="none" xmlns="http://www.w3.org/2000/svg">
<path d="M25.1509 19.0625C25.1509 21.0748 23.5163 22.7061 21.5 22.7061C19.4837 22.7061 17.8492 21.0748 17.8492 19.0625C17.8492 17.0502 19.4837 15.4189 21.5 15.4189C23.5163 15.4189 25.1509 17.0502 25.1509 19.0625Z" fill="url(#paint0_linear_2189_3020)"/>
<path fill-rule="evenodd" clip-rule="evenodd" d="M19.8073 3.64893C20.3668 4.10274 20.9324 4.60436 21.5 5.15014C22.0676 4.60436 22.6332 4.10273 23.1927 3.64893C24.7225 2.40807 26.2503 1.48873 27.6851 1.02548C29.1198 0.562268 30.5761 0.523557 31.8125 1.23601C33.0489 1.94846 33.7435 3.2265 34.0589 4.69811C34.3743 6.16987 34.3405 7.95005 34.0286 9.89268C33.9146 10.6031 33.7621 11.3428 33.5723 12.1063C34.3297 12.324 35.0478 12.5621 35.7213 12.8188C37.5629 13.5205 39.1246 14.3814 40.244 15.3899C41.3633 16.3983 42.125 17.6376 42.125 19.0625C42.125 20.4874 41.3633 21.7267 40.244 22.7351C39.1246 23.7436 37.5629 24.6045 35.7213 25.3063C35.0478 25.5629 34.3297 25.801 33.5723 26.0187C33.7621 26.7822 33.9146 27.5219 34.0286 28.2323C34.3405 30.175 34.3743 31.9551 34.0589 33.4269C33.7435 34.8985 33.0489 36.1765 31.8125 36.889C30.5761 37.6014 29.1198 37.5627 27.6851 37.0995C26.2503 36.6363 24.7225 35.7169 23.1927 34.4761C22.6332 34.0223 22.0676 33.5206 21.5 32.9749C20.9324 33.5206 20.3668 34.0223 19.8073 34.4761C18.2775 35.7169 16.7497 36.6363 15.3149 37.0995C13.8802 37.5627 12.4239 37.6014 11.1875 36.889C9.95106 36.1765 9.25651 34.8985 8.94112 33.4269C8.6257 31.9551 8.65954 30.175 8.97139 28.2323C9.08544 27.5219 9.2379 26.7822 9.42769 26.0187C8.67029 25.801 7.9522 25.5629 7.27868 25.3063C5.43705 24.6045 3.8754 23.7436 2.75601 22.7351C1.63673 21.7267 0.875 20.4874 0.875 19.0625C0.875 17.6376 1.63673 16.3983 2.75601 15.3899C3.8754 14.3814 5.43705 13.5205 7.27868 12.8188C7.9522 12.5621 8.67029 12.324 9.42768 12.1063C9.2379 11.3428 9.08543 10.6032 8.97138 9.89269C8.65953 7.95005 8.62569 6.16987 8.94111 4.69812C9.2565 3.22651 9.95105 1.94847 11.1875 1.23601C12.4239 0.523562 13.8802 0.562273 15.3149 1.02548C16.7497 1.48874 18.2775 2.40807 19.8073 3.64893ZM32.0342 5.13033C31.7909 3.99526 31.3296 3.34382 30.7772 3.02558C30.2249 2.70734 29.429 2.63429 28.3224 2.99157C27.216 3.3488 25.9136 4.10478 24.4986 5.25251C23.9882 5.66655 23.4688 6.1269 22.9447 6.63043C24.0764 7.86173 25.2021 9.25601 26.2888 10.7844C28.1584 10.9595 29.9312 11.2353 31.5655 11.5978C31.7403 10.8931 31.8801 10.214 31.9842 9.56578C32.2726 7.76894 32.2774 6.26525 32.0342 5.13033ZM18.5014 5.25252C19.0118 5.66655 19.5312 6.1269 20.0553 6.63043C18.9236 7.86173 17.7979 9.25601 16.7112 10.7844C14.8416 10.9595 13.0688 11.2353 11.4345 11.5978C11.2597 10.8931 11.1199 10.214 11.0158 9.56579C10.7274 7.76894 10.7226 6.26525 10.9658 5.13033C11.2091 3.99526 11.6704 3.34383 12.2227 3.02558C12.775 2.70734 13.571 2.6343 14.6776 2.99158C15.784 3.34881 17.0864 4.10478 18.5014 5.25252ZM27.7973 13.0337C28.9184 13.1822 29.9893 13.3689 30.9988 13.5892C30.6852 14.5719 30.3118 15.5908 29.8801 16.6341C29.5609 16.0282 29.2255 15.4207 28.8742 14.8134C28.5229 14.2062 28.1635 13.6125 27.7973 13.0337ZM33.0101 14.0951C32.5076 15.689 31.8605 17.359 31.0777 19.0625C31.8605 20.766 32.5076 22.4361 33.0101 24.0299C33.7091 23.8287 34.3683 23.6099 34.9828 23.3758C36.6862 22.7267 37.9934 21.979 38.8566 21.2013C39.7199 20.4235 40.0545 19.699 40.0545 19.0625C40.0545 18.426 39.7199 17.7015 38.8566 16.9238C37.9934 16.1461 36.6862 15.3983 34.9828 14.7492C34.3683 14.5151 33.7091 14.2964 33.0101 14.0951ZM27.0811 15.8466C27.7054 16.9259 28.2752 18.0017 28.7891 19.0625C28.2752 20.1233 27.7054 21.1991 27.0811 22.2784C26.4567 23.3577 25.8081 24.388 25.1445 25.3626C23.9671 25.4488 22.7487 25.4942 21.5 25.4942C20.2513 25.4942 19.0329 25.4488 17.8554 25.3626C17.1919 24.388 16.5433 23.3577 15.9189 22.2784C15.2946 21.1991 14.7248 20.1233 14.2109 19.0625C14.7248 18.0017 15.2946 16.9259 15.9189 15.8466C16.5433 14.7674 17.1919 13.737 17.8554 12.7624C19.0329 12.6762 20.2513 12.6308 21.5 12.6308C22.7487 12.6308 23.9671 12.6762 25.1446 12.7624C25.8081 13.737 26.4567 14.7674 27.0811 15.8466ZM28.8742 23.3116C28.5229 23.9188 28.1635 24.5125 27.7973 25.0913C28.9184 24.9429 29.9893 24.7561 30.9988 24.5358C30.6852 23.5531 30.3118 22.5342 29.8801 21.491C29.5609 22.0968 29.2255 22.7043 28.8742 23.3116ZM21.5 27.5607C22.2026 27.5607 22.8975 27.5468 23.5828 27.5198C22.8934 28.4145 22.1959 29.2467 21.5 30.0092C20.8041 29.2467 20.1066 28.4145 19.4172 27.5198C20.1025 27.5468 20.7974 27.5607 21.5 27.5607ZM26.2888 27.3406C25.2021 28.869 24.0764 30.2633 22.9447 31.4946C23.4688 31.9981 23.9881 32.4585 24.4986 32.8725C25.9135 34.0202 27.216 34.7762 28.3224 35.1334C29.429 35.4907 30.2249 35.4177 30.7772 35.0994C31.3295 34.7812 31.7909 34.1297 32.0342 32.9947C32.2774 31.8598 32.2726 30.3561 31.9842 28.5592C31.8801 27.911 31.7403 27.232 31.5655 26.5272C29.9312 26.8897 28.1584 27.1655 26.2888 27.3406ZM16.7112 27.3406C17.7979 28.869 18.9236 30.2633 20.0553 31.4946C19.5312 31.9981 19.0119 32.4585 18.5014 32.8725C17.0864 34.0202 15.784 34.7762 14.6776 35.1334C13.571 35.4907 12.7751 35.4177 12.2228 35.0994C11.6705 34.7812 11.2091 34.1297 10.9658 32.9947C10.7226 31.8597 10.7274 30.3561 11.0158 28.5592C11.1199 27.911 11.2597 27.232 11.4345 26.5272C13.0688 26.8897 14.8416 27.1655 16.7112 27.3406ZM15.2027 25.0913C14.0816 24.9429 13.0107 24.7561 12.0011 24.5358C12.3148 23.5531 12.6882 22.5342 13.1199 21.491C13.4391 22.0968 13.7745 22.7043 14.1258 23.3116C14.4771 23.9188 14.8365 24.5125 15.2027 25.0913ZM14.1258 14.8134C13.7745 15.4207 13.4391 16.0282 13.1199 16.6341C12.6882 15.5908 12.3148 14.5719 12.0011 13.5892C13.0107 13.3689 14.0816 13.1822 15.2027 13.0337C14.8365 13.6125 14.4771 14.2062 14.1258 14.8134ZM9.98985 24.0299C10.4924 22.4361 11.1395 20.766 11.9223 19.0625C11.1395 17.359 10.4924 15.689 9.98985 14.0951C9.29087 14.2964 8.63173 14.5151 8.01723 14.7492C6.31382 15.3983 5.00662 16.1461 4.14342 16.9238C3.2801 17.7015 2.94551 18.426 2.94551 19.0625C2.94551 19.699 3.2801 20.4235 4.14342 21.2013C5.00662 21.979 6.31382 22.7267 8.01723 23.3758C8.63173 23.6099 9.29087 23.8287 9.98985 24.0299ZM21.5 10.5644C20.7974 10.5644 20.1025 10.5782 19.4172 10.6052C20.1066 9.71047 20.8041 8.8783 21.5 8.11585C22.1959 8.8783 22.8934 9.71047 23.5828 10.6052C22.8975 10.5782 22.2026 10.5644 21.5 10.5644Z" fill="url(#paint1_linear_2189_3020)"/>
<defs>
<linearGradient id="paint0_linear_2189_3020" x1="0.875" y1="19.0625" x2="42.125" y2="19.0625" gradientUnits="userSpaceOnUse">
<stop stop-color="white"/>
<stop offset="1" stop-color="#999999"/>
</linearGradient>
<linearGradient id="paint1_linear_2189_3020" x1="0.875" y1="19.0625" x2="42.125" y2="19.0625" gradientUnits="userSpaceOnUse">
<stop stop-color="white"/>
<stop offset="1" stop-color="#999999"/>
</linearGradient>
</defs>
</svg>
