<svg width="37" height="32" viewBox="0 0 37 32" fill="none" xmlns="http://www.w3.org/2000/svg">
<path d="M30.7652 6.21679C31.4192 6.84214 32.2912 7.19559 33.1905 7.1684C34.117 7.22278 35.0435 6.86932 35.6702 6.21679C36.3242 5.53707 36.6512 4.63984 36.624 3.71542C36.6512 2.81818 36.3242 1.94814 35.7247 1.2956C35.1252 0.670261 34.3077 0.343994 33.245 0.343994C32.3457 0.343994 31.4737 0.670261 30.8197 1.2956C30.1657 1.92095 29.8115 2.79099 29.8387 3.71542C29.8115 4.63984 30.1385 5.53707 30.7652 6.21679Z" fill="url(#paint0_linear_2189_1968)"/>
<path d="M30.1385 9.83291V30.7684C30.1385 31.0402 30.2747 31.2034 30.5472 31.2034H35.8882C36.1335 31.2034 36.2425 31.0674 36.2425 30.7684V9.83291C36.2425 9.58821 36.1335 9.45227 35.8882 9.45227H30.4927C30.2475 9.45227 30.1385 9.56102 30.1385 9.83291Z" fill="url(#paint1_linear_2189_1968)"/>
<path fill-rule="evenodd" clip-rule="evenodd" d="M8.33872 24.2973H18.4757L20.7102 30.7682C20.7647 30.9586 20.9555 31.0945 21.1462 31.0673H26.8415C27.114 31.0673 27.1957 30.9314 27.114 30.6323L17.1677 2.62773C17.1405 2.49179 17.0315 2.41022 16.8135 2.41022H9.75572C9.61947 2.43741 9.51047 2.57336 9.53772 2.7093C9.53772 3.30746 9.48322 3.90561 9.37422 4.47658C9.29699 4.70774 9.23344 4.92526 9.17388 5.12913C9.14938 5.213 9.12555 5.29456 9.10172 5.37381L0.327217 30.5779C0.245467 30.9042 0.327217 31.0673 0.626967 31.0673H5.74997C5.99522 31.0945 6.21322 30.9314 6.26772 30.6867L8.33872 24.2973ZM16.8407 18.7779H9.91922C10.328 17.636 10.7367 16.3581 11.1182 14.9715C11.3882 14.1298 11.6476 13.2882 11.9032 12.4594C12.0603 11.9496 12.216 11.4446 12.3717 10.9475C12.7532 9.77841 13.053 8.60929 13.2982 7.44017H13.3527C13.4591 7.80392 13.5654 8.18457 13.6764 8.58213C13.7646 8.89773 13.8557 9.22399 13.9522 9.5609C14.1702 10.3494 14.4155 11.1379 14.688 11.9807C14.8242 12.4021 14.9537 12.8168 15.0831 13.2314C15.2125 13.646 15.342 14.0607 15.4782 14.4821C15.7235 15.2978 15.9687 16.0862 16.214 16.8203C16.4592 17.5272 16.6772 18.207 16.8407 18.7779Z" fill="url(#paint2_linear_2189_1968)"/>
<defs>
<linearGradient id="paint0_linear_2189_1968" x1="0.297363" y1="15.7737" x2="36.6256" y2="15.7737" gradientUnits="userSpaceOnUse">
<stop stop-color="white"/>
<stop offset="1" stop-color="#999999"/>
</linearGradient>
<linearGradient id="paint1_linear_2189_1968" x1="0.297363" y1="15.7737" x2="36.6256" y2="15.7737" gradientUnits="userSpaceOnUse">
<stop stop-color="white"/>
<stop offset="1" stop-color="#999999"/>
</linearGradient>
<linearGradient id="paint2_linear_2189_1968" x1="0.297363" y1="15.7737" x2="36.6256" y2="15.7737" gradientUnits="userSpaceOnUse">
<stop stop-color="white"/>
<stop offset="1" stop-color="#999999"/>
</linearGradient>
</defs>
</svg>
