<svg width="45" height="28" viewBox="0 0 45 28" fill="none" xmlns="http://www.w3.org/2000/svg">
<path d="M22.5 0.9375C16.4998 0.9375 12.7499 3.93756 11.2497 9.93713C13.5 6.93706 16.125 5.81246 19.1249 6.5622C20.8366 6.98997 22.06 8.23221 23.4144 9.60672C25.6202 11.8458 28.1733 14.4372 33.7503 14.4372C39.7499 14.4372 43.5004 11.4372 45 5.43703C42.7503 8.43709 40.1252 9.56226 37.1249 8.81252C35.4137 8.38475 34.1903 7.14251 32.8359 5.76799C30.63 3.52892 28.0765 0.9375 22.5 0.9375V0.9375ZM11.2497 14.4372C5.25009 14.4372 1.49962 17.4373 0 23.4374C2.24972 20.4373 4.87477 19.3122 7.87514 20.0625C9.58635 20.4908 10.8097 21.7325 12.1641 23.1064C14.37 25.3455 16.9235 27.9375 22.5 27.9375C28.5002 27.9375 32.2501 24.9374 33.7503 18.9373C31.5 21.9374 28.875 23.0625 25.8751 22.3122C24.1634 21.885 22.94 20.6422 21.5856 19.2683C19.3798 17.0292 16.8267 14.4372 11.2497 14.4372V14.4372Z" fill="url(#paint0_linear_2189_9)"/>
<defs>
<linearGradient id="paint0_linear_2189_9" x1="0" y1="14.4375" x2="45" y2="14.4375" gradientUnits="userSpaceOnUse">
<stop stop-color="white"/>
<stop offset="1" stop-color="#999999"/>
</linearGradient>
</defs>
</svg>
