<svg width="29" height="42" viewBox="0 0 29 42" fill="none" xmlns="http://www.w3.org/2000/svg">
<path d="M25.4196 14.6088C27.5361 13.2292 28.937 10.8523 28.937 8.15511C28.937 3.89903 25.4517 0.4375 21.1663 0.4375H7.83267C3.54733 0.4375 0.0620117 3.89903 0.0620117 8.15511C0.0620117 10.8523 1.46289 13.2292 3.5794 14.6088C1.46289 15.9901 0.0620117 18.3654 0.0620117 21.0625C0.0620117 23.7596 1.46289 26.1349 3.5794 27.5162C1.46289 28.8974 0.0620117 31.2727 0.0620117 33.9699C0.0620117 38.226 3.56759 41.6875 7.87487 41.6875C12.1822 41.6875 15.7721 38.1874 15.7721 33.8861V26.7702C17.1527 28.0191 18.9874 28.7801 20.9976 28.7801H21.1663C25.4517 28.7801 28.937 25.3186 28.937 21.0625C28.937 18.3654 27.5361 15.9884 25.4196 14.6088ZM15.7721 2.96534H21.1663C24.0474 2.96534 26.3918 5.2937 26.3918 8.15511C26.3918 11.0165 24.0474 13.3449 21.1663 13.3449H15.7721V2.96534ZM7.83267 2.96534H13.2269V13.3449H7.83267C4.95159 13.3449 2.60722 11.0165 2.60722 8.15511C2.60722 5.2937 4.95159 2.96534 7.83267 2.96534ZM2.60722 21.0625C2.60722 18.2011 4.95159 15.8727 7.83267 15.8727H13.2269V26.2523H7.8293C4.9499 26.2506 2.60722 23.9239 2.60722 21.0625ZM13.2269 33.8861C13.2269 36.7944 10.8252 39.1597 7.87487 39.1597C4.92458 39.1597 2.60722 36.8313 2.60722 33.9699C2.60722 31.1085 4.9499 28.7818 7.8293 28.7801H13.2269V33.8861ZM21.1663 26.2523H20.9976C18.1165 26.2523 15.7721 23.9239 15.7721 21.0625C15.7721 18.2011 18.1165 15.8727 20.9976 15.8727H21.1663C24.0474 15.8727 26.3918 18.2011 26.3918 21.0625C26.3918 23.9239 24.0474 26.2523 21.1663 26.2523Z" fill="url(#paint0_linear_2189_1051)"/>
<defs>
<linearGradient id="paint0_linear_2189_1051" x1="0.0620117" y1="21.0625" x2="28.937" y2="21.0625" gradientUnits="userSpaceOnUse">
<stop stop-color="white"/>
<stop offset="1" stop-color="#999999"/>
</linearGradient>
</defs>
</svg>
