<svg width="47" height="30" viewBox="0 0 47 30" fill="none" xmlns="http://www.w3.org/2000/svg">
<path fill-rule="evenodd" clip-rule="evenodd" d="M7.8724 22.1699H17.7964V22.0366L19.984 28.4318C20.0373 28.6183 20.2241 28.7516 20.4108 28.7249H25.9864C26.2532 28.7249 26.3332 28.5917 26.2532 28.2986L16.5159 1.11918C16.4892 0.985945 16.3558 0.906006 16.1691 0.906006H9.25962C9.12624 0.932652 9.01952 1.06588 9.0462 1.19912C9.0462 1.78534 8.99285 2.37156 8.88614 2.93114C8.77944 3.25086 8.69939 3.49073 8.61936 3.75718L0.0292266 28.3519C-0.0508057 28.6716 0.0292267 28.8315 0.322679 28.8315H5.33804C5.57814 28.8581 5.79155 28.6983 5.84491 28.4584L7.8724 22.1699ZM16.1958 16.8672H9.41969C9.81985 15.7481 10.2467 14.4957 10.5935 13.1367C10.8577 12.3119 11.1118 11.4871 11.3619 10.6749C11.5158 10.1752 11.6682 9.68025 11.8207 9.19305C12.1941 8.04726 12.4876 6.90146 12.7277 5.75566H12.781C12.8851 6.11216 12.9892 6.48523 13.098 6.87485C13.1843 7.18416 13.2735 7.5039 13.3679 7.83408C13.5814 8.60683 13.8215 9.37958 14.0882 10.2056C14.2216 10.6186 14.3483 11.025 14.4751 11.4314C14.6018 11.8377 14.7285 12.2441 14.8619 12.6571C15.102 13.4565 15.3421 14.2292 15.5822 14.9487C15.8223 15.6415 16.0357 16.3077 16.1958 16.8672Z" fill="url(#paint0_linear_2189_1185)"/>
<path fill-rule="evenodd" clip-rule="evenodd" d="M33.5098 19.7716H41.9666C42.324 19.7716 42.6673 19.7999 43 19.8274C43.313 19.8532 43.6166 19.8782 43.914 19.8782C44.5276 19.8782 45.0345 19.8516 45.4613 19.7983C45.6112 19.7889 45.7446 19.7796 45.8615 19.7714C46.0778 19.7562 46.2378 19.745 46.3417 19.745C46.5284 19.745 46.6885 19.5851 46.7152 19.3986C46.727 19.2918 46.7389 19.1585 46.7532 18.9989C46.7709 18.8001 46.7923 18.5602 46.8219 18.2794C46.8485 17.7732 46.8752 17.2136 46.8752 16.5741C46.8752 15.4816 46.7152 14.3891 46.3684 13.3232C46.0215 12.204 45.4613 11.1915 44.7677 10.2855C44.0207 9.35288 43.0604 8.63342 41.9666 8.15379C40.6594 7.56757 39.2455 7.3011 37.8316 7.32775C36.1242 7.32775 34.6303 7.54092 33.3764 8.15379C32.1226 8.76666 31.0288 9.61934 30.1485 10.6852C29.2414 11.7777 28.5745 13.0034 28.1477 14.3358C27.6941 15.7214 27.4807 17.1336 27.4807 18.5725C27.4807 19.9049 27.6675 21.2105 28.041 22.4629C28.4144 23.742 29.028 24.9144 29.8817 25.9536C30.7887 27.0461 31.9359 27.9254 33.2431 28.485C34.6303 29.0979 36.3376 29.4177 38.3651 29.4177C39.6456 29.4443 40.8995 29.3377 42.1533 29.0979C43.087 28.938 43.9674 28.6716 44.8211 28.2985C44.9011 28.2452 44.9545 28.1919 45.0078 28.112C45.0345 28.0054 45.0612 27.8988 45.0612 27.7922V23.7153C45.0612 23.4488 44.9811 23.3956 44.8477 23.5021C44.1008 23.7953 43.3004 24.0084 42.4734 24.115C41.5664 24.3015 40.6327 24.3815 39.699 24.4081C38.5252 24.4348 37.3514 24.1949 36.2843 23.742C35.484 23.4222 34.817 22.8626 34.3368 22.1432C33.8833 21.4237 33.6165 20.5977 33.5098 19.7716ZM39.1388 15.8813H33.5098C33.5899 15.2151 33.7766 14.5756 34.0967 13.9627C34.7903 12.6304 36.1776 11.8576 37.6448 11.9376C39.2188 11.8843 40.6327 12.8969 41.1129 14.3891C41.2196 14.7088 41.273 15.0286 41.273 15.375V15.6414C41.0862 15.7747 40.8728 15.828 40.6594 15.8546C40.3393 15.8813 39.8324 15.8813 39.1388 15.8813Z" fill="url(#paint1_linear_2189_1185)"/>
<defs>
<linearGradient id="paint0_linear_2189_1185" x1="0" y1="15.1638" x2="46.8752" y2="15.1638" gradientUnits="userSpaceOnUse">
<stop stop-color="white"/>
<stop offset="1" stop-color="#999999"/>
</linearGradient>
<linearGradient id="paint1_linear_2189_1185" x1="0" y1="15.1638" x2="46.8752" y2="15.1638" gradientUnits="userSpaceOnUse">
<stop stop-color="white"/>
<stop offset="1" stop-color="#999999"/>
</linearGradient>
</defs>
</svg>
