<svg width="57" height="56" viewBox="0 0 57 56" fill="none" xmlns="http://www.w3.org/2000/svg">
<path d="M32.4766 29.3574V39.067C32.4766 39.3011 32.3836 39.5257 32.218 39.6912C32.0525 39.8567 31.828 39.9497 31.5939 39.9497H26.2977C26.0636 39.9497 25.8391 39.8567 25.6736 39.6912C25.508 39.5257 25.415 39.3011 25.415 39.067V29.3574" stroke="white" stroke-width="1.275" stroke-linecap="round" stroke-linejoin="round"/>
<path d="M25.4131 20.5308V17.8827C25.4131 17.6486 25.5061 17.4241 25.6716 17.2585C25.8371 17.093 26.0617 17 26.2958 17H31.5919C31.826 17 32.0505 17.093 32.2161 17.2585C32.3816 17.4241 32.4746 17.6486 32.4746 17.8827V20.5308" stroke="white" stroke-width="1.275" stroke-linecap="round" stroke-linejoin="round"/>
<path d="M36.8887 23.1777V26.7085" stroke="white" stroke-width="1.275" stroke-linecap="round" stroke-linejoin="round"/>
<path d="M21 23.178V26.7087" stroke="white" stroke-width="1.275" stroke-linecap="round" stroke-linejoin="round"/>
<path d="M36.8887 24.9435H21.0002" stroke="white" stroke-width="1.275" stroke-linecap="round" stroke-linejoin="round"/>
<rect x="0.5" y="0.5" width="56" height="55" rx="9.5" stroke="url(#paint0_linear_2426_6515)"/>
<defs>
<linearGradient id="paint0_linear_2426_6515" x1="28.4484" y1="-8.65777e-10" x2="28.5516" y2="56" gradientUnits="userSpaceOnUse">
<stop stop-color="white"/>
<stop offset="0.254808" stop-opacity="0"/>
<stop offset="0.75" stop-opacity="0"/>
<stop offset="1" stop-color="white"/>
</linearGradient>
</defs>
</svg>
