<svg width="1360" height="496" viewBox="0 0 1360 496" fill="none" xmlns="http://www.w3.org/2000/svg">
<path d="M0.714844 2.1271C127.242 140.489 267.198 201.865 448.153 201.865C629.107 201.865 689.897 201.865 913.966 201.865C1138.04 201.865 1273.41 101.819 1360.7 0.708008M0.714844 139.889C131.401 200.094 238.004 226.656 446.96 226.656C655.916 226.656 694.166 226.656 914.455 226.656C1134.74 226.656 1237.1 195.845 1360.7 139.889M0.714844 250.738H1360.7M0.714844 361.233C131.401 301.027 238.004 274.466 446.96 274.466C655.916 274.466 694.166 274.466 914.455 274.466C1134.74 274.466 1237.1 305.277 1360.7 361.233M0.714844 499.348C127.242 360.987 267.198 299.611 448.153 299.611C629.107 299.611 689.897 299.611 913.966 299.611C1138.04 299.611 1273.41 399.657 1360.7 500.768" stroke="url(#paint0_linear_906_8254)"/>
<defs>
<linearGradient id="paint0_linear_906_8254" x1="680.708" y1="0.708008" x2="680.708" y2="500.768" gradientUnits="userSpaceOnUse">
<stop stop-color="white"/>
<stop offset="1" stop-color="#999999"/>
</linearGradient>
</defs>
</svg>
